<svg width="638" height="227" viewBox="0 0 638 227" fill="none" xmlns="http://www.w3.org/2000/svg">
<path d="M33.25 56.5L33.875 56.5625H35.375C36.7917 56.5625 37.8958 56.4583 38.6875 56.25L42.0625 55.8125C47.8125 55.3958 51.2708 53.8542 52.4375 51.1875C53.0208 49.8542 53.3125 48.1667 53.3125 46.125C53.0625 45.7083 52.9375 44.9167 52.9375 43.75C52.9375 42.5833 52.3333 41.3542 51.125 40.0625C49.9583 38.7708 48.5625 38.125 46.9375 38.125H46.625C42.625 38.125 40.625 41.5208 40.625 48.3125C40.4167 48.6458 40.0625 48.7708 39.5625 48.6875C39.1042 48.6042 37.9583 48.5625 36.125 48.5625H3.875C4.08333 45.6875 4.83333 42.5833 6.125 39.25C8.58333 32.8333 13.3333 28.2292 20.375 25.4375C27.4583 22.6042 34.4792 21.0625 41.4375 20.8125L45.1875 20.625L47.1875 20.4375C47.4375 20.4375 47.6875 20.5 47.9375 20.625H48.75L51.5625 20.5C52.1458 20.5 53.4583 20.6458 55.5 20.9375L57.3125 21.1875C57.6042 21.2292 58.0625 21.25 58.6875 21.25C59.3125 21.25 60.625 21.3958 62.625 21.6875C64.625 21.9375 67.125 22.6458 70.125 23.8125C80.2917 27.8125 86.4583 35.4792 88.625 46.8125C89.5417 51.6042 90 56.9167 90 62.75C90.2917 63.7083 90.4375 64.5833 90.4375 65.375L90.125 69.6875V76.9375C90.1667 77.0208 90.1875 77.375 90.1875 78L90.0625 82.25V82.8125C90.1875 83.0208 90.25 83.3125 90.25 83.6875L90.1875 84.25V85.5625C90.1875 89.5208 90.7917 93.2708 92 96.8125L92.625 98.1875H64.375L62.125 98.125C60.4583 98.125 59.1875 98.1458 58.3125 98.1875C56.9792 95.6875 55.7083 92.2708 54.5 87.9375C53.9583 89.0625 53.0208 90.3542 51.6875 91.8125C50.3958 93.2292 49.4375 93.9375 48.8125 93.9375C42.6458 96.9375 37.9583 98.6458 34.75 99.0625C30 99.8542 27.4375 100.25 27.0625 100.25C26.7292 100.25 26.5625 100.25 26.5625 100.25C16.6042 100.25 9.08333 96.7917 4 89.875C1.45833 86.3333 0.1875 82.2292 0.1875 77.5625C0.1875 67.4375 4.89583 61.2292 14.3125 58.9375C16.7292 58.3542 21.3958 57.75 28.3125 57.125L30.375 56.9375L33.25 56.5ZM53.75 71L53.8125 69C53.8125 66.9167 53.6458 64.9167 53.3125 63C52.3958 63.5 51.0625 64.0625 49.3125 64.6875C47.5625 65.3125 46.1667 65.8542 45.125 66.3125C44.0833 66.7292 43.125 67.5 42.25 68.625C41.4167 69.7083 41 71.2083 41 73.125C41 75.0417 41.6042 76.7917 42.8125 78.375C44.0625 79.9583 45.4167 80.75 46.875 80.75C50 80.75 52.2292 79.625 53.5625 77.375L53.6875 76.75L53.75 72.875V71ZM116.25 23.25L133 23.1875C133.208 24.0625 133.583 25.4375 134.125 27.3125C134.667 29.1875 135.188 31.0625 135.688 32.9375L136.875 37.625C138.542 33.4167 139.562 31.0833 139.938 30.625L140.938 29.375C145.146 23.4583 151.604 20.5 160.312 20.5C164.438 20.5 168.354 21.75 172.062 24.25C175.812 26.7083 178.729 29.9375 180.812 33.9375C182.896 37.8958 183.938 42.0833 183.938 46.5C183.938 47 183.875 47.3958 183.75 47.6875V86.125L183.812 98.0625H147.25L147.125 66.8125L147.375 60.4375C147.375 54.0625 145.688 50.875 142.312 50.875C138.688 50.875 136.875 53.8958 136.875 59.9375C136.875 61.2708 136.896 62.1875 136.938 62.6875V63.625L137 64.6875V98L118.375 98.0625H99.6875L99.625 60.5625V23.1875L116.25 23.25ZM242.188 23.75L242.375 17.4375V0.875H261L279.75 0.8125C279.75 0.8125 279.771 33.3333 279.812 98.375H247.938C247.062 96.9583 246.417 95.6458 246 94.4375L243.5 90.0625C239.5 93.6042 235.729 96.1875 232.188 97.8125C228.688 99.4375 224.375 100.25 219.25 100.25C210.958 100.25 203.979 96.9583 198.312 90.375C192.646 83.7917 189.812 75.3542 189.812 65.0625C189.812 58.2708 190.583 51.8542 192.125 45.8125C193.792 39.9792 196.479 34.5417 200.188 29.5C203.896 24.4167 208.729 21.5417 214.688 20.875L215.625 20.9375L220.938 20.5625C226.021 20.5625 231.792 22.7917 238.25 27.25L239.562 28.0625L239.5 28C240.458 28.625 241.062 29.0833 241.312 29.375L243.25 28.5C242.542 26.375 242.188 24.9167 242.188 24.125V23.75ZM228.812 62.1875L228.75 64.375V66.125C228.75 68.4167 229.188 70.7708 230.062 73.1875L230 73.125C230.292 74.375 231.125 75.9792 232.5 77.9375C233.875 79.8542 235.271 80.8125 236.688 80.8125C237.229 80.8125 237.667 80.7083 238 80.5C242.333 78.625 244.5 72.7917 244.5 63C244.5 56.2083 243.375 50.7917 241.125 46.75C239.75 44.25 238.229 43 236.562 43C234.938 43 233.5 44.25 232.25 46.75C229.958 51.2917 228.812 56.4375 228.812 62.1875ZM317.812 21.375C319.688 20.8333 321.688 20.5625 323.812 20.5625C325.938 20.5625 327.958 20.6458 329.875 20.8125L332.5 21.0625C336.625 21.4375 339.792 21.9167 342 22.5V22.4375L343.312 23C352.062 25.7083 358.875 29.8333 363.75 35.375V35.3125C364.875 36.6458 366.25 38.6667 367.875 41.375C369.542 44.0417 370.375 45.8958 370.375 46.9375L370.875 48.625L371.188 50.4375C371.979 53.2292 372.375 55.5625 372.375 57.4375C372.375 59.3125 372.396 60.75 372.438 61.75H320.938V63.8125C321.188 64.7708 321.312 65.7708 321.312 66.8125C321.312 67.8542 321.312 68.6875 321.312 69.3125C321.354 69.8958 321.417 70.4792 321.5 71.0625C321.583 71.6042 321.625 72.0625 321.625 72.4375C321.667 72.7708 321.771 73.1875 321.938 73.6875C322.104 74.1458 322.188 74.4583 322.188 74.625C322.229 74.7917 322.354 75.125 322.562 75.625C322.812 76.125 323 76.6042 323.125 77.0625C323.292 77.4792 323.583 77.8958 324 78.3125V78.25L324.688 79.5625C325.479 80.4375 326.562 81.0625 327.938 81.4375C330.229 80.9375 331.771 79.75 332.562 77.875C333.396 76 334.083 73.6667 334.625 70.875C336.125 70.4583 338.25 70.25 341 70.25L349 70.4375H372.062C371.562 75.5208 370.062 80.1875 367.562 84.4375H367.625C365.458 87.8542 362.083 90.7917 357.5 93.25C344.542 97.7917 336.229 100.062 332.562 100.062C331.896 100.062 331.354 100.021 330.938 99.9375H329.5L328.938 100H328.375C328.042 100 327.625 99.9583 327.125 99.875C326.708 100.125 326.208 100.25 325.625 100.25L320.188 99.625C319.896 99.75 319.292 99.8125 318.375 99.8125C317.5 99.8125 315.167 99.25 311.375 98.125V98.1875L309.875 97.75L308.375 97.25C302.125 95.4167 296.771 92.2083 292.312 87.625C287.854 83 285 77.625 283.75 71.5C283.625 70.75 283.396 69.625 283.062 68.125C282.729 66.5833 282.562 65.5417 282.562 65V62C282.562 61.2917 282.583 60.75 282.625 60.375V59.4375C282.625 50.6042 285.25 42.9792 290.5 36.5625C295.75 30.1042 302.792 25.5625 311.625 22.9375L313.125 22.5C315.333 22.125 316.917 21.7292 317.875 21.3125L317.812 21.375ZM336.5 53.5L337.812 52.6875C337.104 48.1875 336.438 45.3125 335.812 44.0625C335.188 42.7708 334.583 41.6667 334 40.75C332.917 39 331.479 38.125 329.688 38.125C327.938 38.125 326.438 39 325.188 40.75C322.979 43.8333 321.583 48.1667 321 53.75C323.667 53.5833 326.125 53.5 328.375 53.5H336.5ZM378.25 23.1875L394.875 23.125H411.5L412.875 31.5C413.833 37.375 414.396 40.7083 414.562 41.5H416.75C418.292 34.375 421.25 29.3125 425.625 26.3125L428.125 24.875C428.25 24.625 429 24.1667 430.375 23.5L430.125 23.5625L431.562 23C435.646 21.375 439.167 20.5417 442.125 20.5C442.75 20.5 443.167 20.5417 443.375 20.625H445.688V55.5C444.812 55.2917 443.438 55.1875 441.562 55.1875C439.688 55.1875 437.75 55.4583 435.75 56C433.792 56.5417 432.125 57.25 430.75 58.125C429.417 58.9583 428.25 60.0417 427.25 61.375C424.167 65.5 422.625 71.6875 422.625 79.9375L422.75 86.5V98L400.5 98.0625H378.312L378.25 60.75V23.1875ZM529.188 39.4375L523.5 39.375C520.125 39.375 514.896 39.4167 507.812 39.5C507.312 38.125 506.292 36.9583 504.75 36C503.25 35.0417 501.583 34.5625 499.75 34.5625C497.917 34.5625 496.417 34.9792 495.25 35.8125C494.083 36.6042 493.5 37.7292 493.5 39.1875C493.5 40.6458 494.042 41.9583 495.125 43.125C496.25 44.2917 497.812 45.125 499.812 45.625C501.812 46.0833 503.792 46.3958 505.75 46.5625C507.75 46.7292 510.062 46.8958 512.688 47.0625C515.354 47.2292 517.354 47.4375 518.688 47.6875C520.062 47.8958 521.792 48.125 523.875 48.375C527.583 48.875 530.854 49.5625 533.688 50.4375C536.562 51.2708 539.562 53.0417 542.688 55.75C543.312 56.0417 544.146 56.8125 545.188 58.0625C547.062 60.9375 548.25 65.1042 548.75 70.5625C548.542 76.5625 546.354 81.8958 542.188 86.5625C538.021 91.1875 532.75 94.5417 526.375 96.625C525.875 96.875 525.25 97.0417 524.5 97.125L522.375 97.625C518.333 98.7917 514.833 99.375 511.875 99.375C510.083 99.9583 507.208 100.25 503.25 100.25L501.688 100.188H497.125L496.438 100.25C489.979 100.25 483.062 99.2083 475.688 97.125V97.1875C459.979 93.3125 452.104 86.5625 452.062 76.9375C454.271 77.1042 457.333 77.1875 461.25 77.1875C465.167 77.1875 470.458 77.1667 477.125 77.125C483.833 77.0417 488.917 77 492.375 77C492.333 77.25 492.312 77.6667 492.312 78.25C492.312 80.0833 493.25 81.5833 495.125 82.75C497 83.9167 499.167 84.5 501.625 84.5C504.083 84.5 506.021 84.0208 507.438 83.0625C508.854 82.1042 509.562 80.875 509.562 79.375C509.562 77.8333 509.167 76.5625 508.375 75.5625C507.583 74.5208 506.417 73.75 504.875 73.25C503.333 72.75 501.896 72.3958 500.562 72.1875C499.271 71.9375 497.583 71.7292 495.5 71.5625C493.417 71.3958 491.875 71.2292 490.875 71.0625C489.875 70.8958 488.396 70.6875 486.438 70.4375C484.479 70.1458 482.75 69.9167 481.25 69.75C479.792 69.5417 478.062 69.25 476.062 68.875C474.104 68.5 472.354 68.125 470.812 67.75C469.312 67.3333 467.688 66.7917 465.938 66.125C464.188 65.4583 462.667 64.7292 461.375 63.9375C455.083 60.0208 451.938 54.3125 451.938 46.8125C451.938 40.1042 453.833 34.9167 457.625 31.25C462.375 26.7083 470.083 23.75 480.75 22.375C481.833 22.2083 483.375 21.9167 485.375 21.5C487.375 21.0417 488.75 20.8125 489.5 20.8125C490.25 20.8125 490.75 20.8542 491 20.9375L498.938 20.5L509.938 21C510.354 21.0417 511.562 21.125 513.562 21.25C518.521 21.625 522.875 22.3333 526.625 23.375C530.417 24.375 534.021 26.3542 537.438 29.3125C540.896 32.2708 542.875 35.4792 543.375 38.9375L542.938 38.8125L529.188 39.4375ZM1.875 99.875L17.75 99.8125C22.5833 99.8125 30.0833 99.8542 40.25 99.9375V198.062H2L1.875 99.875ZM88.625 99.375L88.6875 116.5H50.1875C50.1875 112.5 50.1458 109.646 50.0625 107.938L50 99.5L88.625 99.375ZM49.375 99.5L50 98.875V99.5H49.375ZM88.875 178.188L88.9375 178.75L89 188.125C89 189.833 88.9167 191.875 88.75 194.25C88.5833 196.625 88.4375 197.854 88.3125 197.938L87.1875 198.062H64.4375L61.8125 198.312C55.3125 198.312 51.3542 198.229 49.9375 198.062V197.625L49.875 196.438V193.625C49.875 185.417 50 178.604 50.25 173.188L50.9375 125.062V123.188L55.8125 123.125L56.875 123.188H58.6875L60.25 123.25L61.0625 123.188H65.5625L66.5 123.125L87.8125 123.375C87.9792 123.333 88.1042 123.312 88.1875 123.312C88.2708 123.312 88.3125 123.438 88.3125 123.688L88.375 129.625C88.4167 133.583 88.5 138.896 88.625 145.562C88.75 152.188 88.8125 156.875 88.8125 159.625L88.75 167.438V170.75L88.9375 174.062V176C88.9375 176.042 88.9167 176.125 88.875 176.25V178.188ZM113.625 123.25L130.375 123.188C130.583 124.062 130.958 125.438 131.5 127.312C132.042 129.188 132.562 131.062 133.062 132.938L134.25 137.625C135.917 133.417 136.938 131.083 137.312 130.625L138.312 129.375C142.521 123.458 148.979 120.5 157.688 120.5C161.812 120.5 165.729 121.75 169.438 124.25C173.188 126.708 176.104 129.938 178.188 133.938C180.271 137.896 181.312 142.083 181.312 146.5C181.312 147 181.25 147.396 181.125 147.688V186.125L181.188 198.062H144.625L144.5 166.812L144.75 160.438C144.75 154.062 143.062 150.875 139.688 150.875C136.062 150.875 134.25 153.896 134.25 159.938C134.25 161.271 134.271 162.188 134.312 162.688V163.625L134.375 164.688V198L115.75 198.062H97.0625L97 160.562V123.188L113.625 123.25ZM239.562 123.75L239.75 117.438V100.875H258.375L277.125 100.812C277.125 100.812 277.146 133.333 277.188 198.375H245.312C244.438 196.958 243.792 195.646 243.375 194.438L240.875 190.062C236.875 193.604 233.104 196.188 229.562 197.812C226.062 199.438 221.75 200.25 216.625 200.25C208.333 200.25 201.354 196.958 195.688 190.375C190.021 183.792 187.188 175.354 187.188 165.062C187.188 158.271 187.958 151.854 189.5 145.812C191.167 139.979 193.854 134.542 197.562 129.5C201.271 124.417 206.104 121.542 212.062 120.875L213 120.938L218.312 120.562C223.396 120.562 229.167 122.792 235.625 127.25L236.938 128.062L236.875 128C237.833 128.625 238.438 129.083 238.688 129.375L240.625 128.5C239.917 126.375 239.562 124.917 239.562 124.125V123.75ZM226.188 162.188L226.125 164.375V166.125C226.125 168.417 226.562 170.771 227.438 173.188L227.375 173.125C227.667 174.375 228.5 175.979 229.875 177.938C231.25 179.854 232.646 180.812 234.062 180.812C234.604 180.812 235.042 180.708 235.375 180.5C239.708 178.625 241.875 172.792 241.875 163C241.875 156.208 240.75 150.792 238.5 146.75C237.125 144.25 235.604 143 233.938 143C232.312 143 230.875 144.25 229.625 146.75C227.333 151.292 226.188 156.438 226.188 162.188ZM372.875 155.688L373 156.812V157.188L372.938 160.375C372.729 180.125 366.375 192.625 353.875 197.875C350.042 199.458 345.625 200.25 340.625 200.25C333.792 200.25 327.125 197.188 320.625 191.062L317.75 193.062L315.062 198.312H283.062L283 149.562V100.812C291.542 100.729 304.021 100.688 320.438 100.688C320.521 104.604 320.562 109.333 320.562 114.875C320.562 120.375 320.521 125.583 320.438 130.5C324.104 127.375 328 124.938 332.125 123.188C336.25 121.438 340.167 120.562 343.875 120.562C351 120.562 356.979 122.979 361.812 127.812C362.771 128.604 363.5 129.396 364 130.188C364.5 130.979 364.875 131.479 365.125 131.688V131.625L365.75 132.125C368.292 135.5 370.312 139.917 371.812 145.375C372.562 148.583 372.938 151 372.938 152.625C372.938 154.25 372.917 155.271 372.875 155.688ZM334.25 163.062C334.25 159.062 333.854 155.417 333.062 152.125C331.562 145.958 329.271 142.875 326.188 142.875C323.688 142.875 321.75 144.833 320.375 148.75C319 152.667 318.312 158.167 318.312 165.25C318.312 170.083 319.542 174.292 322 177.875C323.333 179.75 324.729 180.688 326.188 180.688C327.688 180.688 328.979 180.146 330.062 179.062C331.146 177.938 332.104 176.104 332.938 173.562C333.812 170.979 334.25 168.896 334.25 167.312C334.25 165.688 334.229 164.812 334.188 164.688V164.562C334.229 164.396 334.25 164.167 334.25 163.875V163.062ZM410.438 121.375C412.312 120.833 414.312 120.562 416.438 120.562C418.562 120.562 420.583 120.646 422.5 120.812L425.125 121.062C429.25 121.438 432.417 121.917 434.625 122.5V122.438L435.938 123C444.688 125.708 451.5 129.833 456.375 135.375V135.312C457.5 136.646 458.875 138.667 460.5 141.375C462.167 144.042 463 145.896 463 146.938L463.5 148.625L463.812 150.438C464.604 153.229 465 155.562 465 157.438C465 159.312 465.021 160.75 465.062 161.75H413.562V163.812C413.812 164.771 413.938 165.771 413.938 166.812C413.938 167.854 413.938 168.688 413.938 169.312C413.979 169.896 414.042 170.479 414.125 171.062C414.208 171.604 414.25 172.062 414.25 172.438C414.292 172.771 414.396 173.188 414.562 173.688C414.729 174.146 414.812 174.458 414.812 174.625C414.854 174.792 414.979 175.125 415.188 175.625C415.438 176.125 415.625 176.604 415.75 177.062C415.917 177.479 416.208 177.896 416.625 178.312V178.25L417.312 179.562C418.104 180.438 419.188 181.062 420.562 181.438C422.854 180.938 424.396 179.75 425.188 177.875C426.021 176 426.708 173.667 427.25 170.875C428.75 170.458 430.875 170.25 433.625 170.25L441.625 170.438H464.688C464.188 175.521 462.688 180.188 460.188 184.438H460.25C458.083 187.854 454.708 190.792 450.125 193.25C437.167 197.792 428.854 200.062 425.188 200.062C424.521 200.062 423.979 200.021 423.562 199.938H422.125L421.562 200H421C420.667 200 420.25 199.958 419.75 199.875C419.333 200.125 418.833 200.25 418.25 200.25L412.812 199.625C412.521 199.75 411.917 199.812 411 199.812C410.125 199.812 407.792 199.25 404 198.125V198.188L402.5 197.75L401 197.25C394.75 195.417 389.396 192.208 384.938 187.625C380.479 183 377.625 177.625 376.375 171.5C376.25 170.75 376.021 169.625 375.688 168.125C375.354 166.583 375.188 165.542 375.188 165V162C375.188 161.292 375.208 160.75 375.25 160.375V159.438C375.25 150.604 377.875 142.979 383.125 136.562C388.375 130.104 395.417 125.562 404.25 122.938L405.75 122.5C407.958 122.125 409.542 121.729 410.5 121.312L410.438 121.375ZM429.125 153.5L430.438 152.688C429.729 148.188 429.062 145.312 428.438 144.062C427.812 142.771 427.208 141.667 426.625 140.75C425.542 139 424.104 138.125 422.312 138.125C420.562 138.125 419.062 139 417.812 140.75C415.604 143.833 414.208 148.167 413.625 153.75C416.292 153.583 418.75 153.5 421 153.5H429.125ZM470.875 123.188L487.5 123.125H504.125L505.5 131.5C506.458 137.375 507.021 140.708 507.188 141.5H509.375C510.917 134.375 513.875 129.312 518.25 126.312L520.75 124.875C520.875 124.625 521.625 124.167 523 123.5L522.75 123.562L524.188 123C528.271 121.375 531.792 120.542 534.75 120.5C535.375 120.5 535.792 120.542 536 120.625H538.312V155.5C537.438 155.292 536.062 155.188 534.188 155.188C532.312 155.188 530.375 155.458 528.375 156C526.417 156.542 524.75 157.25 523.375 158.125C522.042 158.958 520.875 160.042 519.875 161.375C516.792 165.5 515.25 171.688 515.25 179.938L515.375 186.5V198L493.125 198.062H470.938L470.875 160.75V123.188ZM600.5 190.125L600.75 186.5C600.75 185.875 600.562 184.188 600.188 181.438C599.646 182.396 598.896 183.354 597.938 184.312C597.021 185.271 596.25 185.833 595.625 186C591.083 188 585.562 189 579.062 189C572.604 189 566.792 187.688 561.625 185.062C556.5 182.396 552.375 178.562 549.25 173.562C546.167 168.562 544.625 163.229 544.625 157.562C544.625 151.896 545.458 146.875 547.125 142.5C548.833 138.083 551.188 134.25 554.188 131C557.229 127.75 560.979 125.188 565.438 123.312C569.896 121.438 574.771 120.5 580.062 120.5C588.521 120.5 595.583 122.854 601.25 127.562C602.292 128.688 603.375 129.625 604.5 130.375L605.375 127.625V123.25H621.562L637.812 123.188L637.875 181.5C637.875 182.208 637.833 183.312 637.75 184.812V185.062C637.708 185.854 637.688 187.104 637.688 188.812V189.5L637.812 192.812L637.438 196.312C637.438 196.521 637.438 196.646 637.438 196.688C637.479 196.729 637.312 197.667 636.938 199.5C636.562 201.333 636.104 202.958 635.562 204.375C633.854 208.958 630.458 213.125 625.375 216.875C620.292 220.667 615.875 222.833 612.125 223.375C611.708 223.792 610.896 224.104 609.688 224.312C608.479 224.562 607.75 224.729 607.5 224.812V224.75C603.458 226.083 599.583 226.75 595.875 226.75C592.208 226.75 590.312 226.708 590.188 226.625H588.312C587.938 226.75 586.938 226.812 585.312 226.812C583.729 226.812 580.812 226.333 576.562 225.375L574.562 224.938C571.521 224.312 568.75 223.417 566.25 222.25C560.333 219.875 555.688 216.708 552.312 212.75C548.938 208.792 546.646 203.312 545.438 196.312L545.312 195.75C546.646 195.833 548.604 195.875 551.188 195.875L561.438 195.688H589.125L589.062 195.938C589.062 198.104 589.521 200.062 590.438 201.812C591.396 203.604 592.646 204.5 594.188 204.5C596.896 204.5 598.729 202.958 599.688 199.875C600.438 197.458 600.812 194.896 600.812 192.188V190.938C600.688 190.938 600.625 191.021 600.625 191.188C600.542 191.062 600.5 190.708 600.5 190.125ZM602.25 156.125L602.312 155.375C601.938 143.292 599.271 137.25 594.312 137.25C592.896 137.25 591.646 137.771 590.562 138.812C588.812 140.479 587.604 142.979 586.938 146.312C586.312 149.646 586 152.542 586 155L586.188 157.188V157.75L586.125 158.188V158.562C586.125 161.979 586.938 165.312 588.562 168.562C590.188 171.771 592.25 173.375 594.75 173.375C597.5 173.375 599.792 169.958 601.625 163.125H601.312C601.938 161.5 602.25 159.833 602.25 158.125V156.125Z" fill="#F1A008"/>
</svg>
