<svg width="770" height="193" viewBox="0 0 770 193" fill="none" xmlns="http://www.w3.org/2000/svg">
<path d="M64.5 91L61.375 76.1875H36.8125L33.6875 91H0.25V62L7.5 60.5625L24.8125 3H73.3125L90.75 60.5625L97.9375 62V91H64.5ZM40.625 56.4375H57.5625L49.0625 21.875L40.625 56.4375ZM137.375 44.8125V64.625L144.938 66V91H107.312V66.0625L114.812 64.625V29.0625L107.312 27.625V3H152.438L182.5 50.4375V29.1875L175 27.625V3H212.562V27.625L205.062 29.0625V64.625L212.562 66.0625V91H167.438L137.375 44.8125ZM292.938 3C298.604 4.20833 303.708 5.91667 308.25 8.125C312.792 10.3333 316.646 13.1667 319.812 16.625C323.021 20.0417 325.479 24.1667 327.188 29C328.896 33.7917 329.75 39.3958 329.75 45.8125C329.75 51.4375 329.083 56.4792 327.75 60.9375C326.458 65.3542 324.583 69.25 322.125 72.625C319.708 75.9583 316.729 78.7917 313.188 81.125C309.646 83.4583 305.646 85.3542 301.188 86.8125C296.771 88.2708 291.896 89.3333 286.562 90C281.271 90.6667 275.625 91 269.625 91H224.5V66.0625L232 64.625V26.9375L224.5 25.5V3H292.938ZM275.375 64.625C278.167 64.625 280.521 64.4167 282.438 64C284.354 63.5833 285.917 63 287.125 62.25C288.375 61.5 289.333 60.5625 290 59.4375C290.708 58.3125 291.208 57.0625 291.5 55.6875C291.833 54.3125 292.021 52.7917 292.062 51.125C292.104 49.4583 292.125 47.6875 292.125 45.8125C292.125 43.9375 292.104 42.1667 292.062 40.5C292.021 38.8333 291.833 37.3125 291.5 35.9375C291.208 34.5208 290.708 33.2708 290 32.1875C289.333 31.0625 288.375 30.125 287.125 29.375C285.917 28.5833 284.354 27.9792 282.438 27.5625C280.521 27.1458 278.167 26.9375 275.375 26.9375H269.625V64.625H275.375ZM383.75 41.6875L401.062 38V55.8125L383.75 52.0625V65.875C386.25 65.875 388.667 65.7083 391 65.375C393.333 65 395.5 64.5 397.5 63.875C399.5 63.25 401.333 62.5208 403 61.6875C404.667 60.8542 406.104 59.9583 407.312 59H415.875V91H338.625V66.0625L346.125 64.625V29.1875L338.625 27.75V3H415.875V35H407.312C406.104 34.0833 404.667 33.2083 403 32.375C401.333 31.5417 399.5 30.8125 397.5 30.1875C395.5 29.5625 393.333 29.0625 391 28.6875C388.667 28.3125 386.25 28.125 383.75 28.125V41.6875ZM523.625 91H486.25C485.083 88.8333 483.875 86.5417 482.625 84.125C481.375 81.6667 480.167 79.1042 479 76.4375C477.833 73.7708 476.729 71.0208 475.688 68.1875C474.688 65.3542 473.833 62.4375 473.125 59.4375H471.062V91H425.938V66.0625L433.438 64.625V29.0625L425.938 27.625V3H477.125C483.917 3 489.771 3.29167 494.688 3.875C499.646 4.45833 503.833 5.3125 507.25 6.4375C510.708 7.5625 513.5 8.9375 515.625 10.5625C517.75 12.1458 519.396 13.9583 520.562 16C521.771 18 522.583 20.2083 523 22.625C523.417 25.0417 523.625 27.6042 523.625 30.3125C523.625 33.0625 523.354 35.5625 522.812 37.8125C522.312 40.0625 521.396 42.125 520.062 44C518.729 45.875 516.896 47.6042 514.562 49.1875C512.271 50.7292 509.333 52.1875 505.75 53.5625C506.5 55.0625 507.604 56.8542 509.062 58.9375C510.562 60.9792 512.188 63.0833 513.938 65.25C515.688 67.375 517.417 69.4375 519.125 71.4375C520.875 73.4375 522.375 75.1458 523.625 76.5625V91ZM471.062 42.5C473.354 42.5 475.417 42.3958 477.25 42.1875C479.125 41.9375 480.708 41.4375 482 40.6875C483.333 39.8958 484.354 38.75 485.062 37.25C485.771 35.75 486.125 33.7292 486.125 31.1875C486.125 28.6875 485.771 26.6875 485.062 25.1875C484.354 23.6875 483.333 22.5417 482 21.75C480.708 20.9167 479.125 20.375 477.25 20.125C475.417 19.875 473.354 19.75 471.062 19.75V42.5ZM610.75 63.3125C610.75 67.1875 610.188 70.625 609.062 73.625C607.979 76.5833 606.479 79.1667 604.562 81.375C602.688 83.5417 600.438 85.3542 597.812 86.8125C595.229 88.2708 592.438 89.4583 589.438 90.375C586.438 91.25 583.292 91.75 580 91.875C576.75 92.0417 573.5 92.125 570.25 92.125C565.75 92.125 561.688 92.0208 558.062 91.8125C554.438 91.6042 551.188 91.1458 548.312 90.4375C545.479 89.7292 542.958 88.9583 540.75 88.125C538.583 87.25 536.667 86.3958 535 85.5625V63.875H552.688C554.438 66.625 556.438 68.6458 558.688 69.9375C560.938 71.2292 563.25 71.875 565.625 71.875C566.333 71.875 567.125 71.8125 568 71.6875C568.875 71.5625 569.688 71.1667 570.438 70.5C571.188 69.8333 571.812 68.8125 572.312 67.4375C572.854 66.0208 573.125 64.0417 573.125 61.5C569.75 61.2083 566.396 60.7917 563.062 60.25C559.771 59.6667 556.604 58.8958 553.562 57.9375C550.562 56.9792 547.771 55.7708 545.188 54.3125C542.604 52.8125 540.354 51.0208 538.438 48.9375C536.562 46.8125 535.083 44.3333 534 41.5C532.917 38.625 532.375 35.3333 532.375 31.625C532.375 27.375 532.917 23.6667 534 20.5C535.083 17.2917 536.562 14.5417 538.438 12.25C540.312 9.95833 542.521 8.0625 545.062 6.5625C547.646 5.0625 550.417 3.875 553.375 3C556.333 2.125 559.417 1.52083 562.625 1.1875C565.833 0.8125 569.042 0.625 572.25 0.625C576.792 0.625 580.854 0.854167 584.438 1.3125C588.062 1.77083 591.292 2.35417 594.125 3.0625C597 3.77083 599.521 4.5625 601.688 5.4375C603.896 6.27083 605.854 7.08333 607.562 7.875V29.75H588.625C587.042 26.75 585.229 24.5625 583.188 23.1875C581.146 21.8125 579.062 21.125 576.938 21.125C576.229 21.125 575.417 21.25 574.5 21.5C573.583 21.7083 572.729 22.2083 571.938 23C571.146 23.7917 570.479 24.9583 569.938 26.5C569.396 28.0417 569.125 30.125 569.125 32.75C576 33 582.021 33.7292 587.188 34.9375C592.396 36.1458 596.75 37.9583 600.25 40.375C603.75 42.75 606.375 45.8333 608.125 49.625C609.875 53.375 610.75 57.9375 610.75 63.3125ZM48.125 167C49.875 167 51.5417 166.771 53.125 166.312C54.7083 165.812 56.1667 165.188 57.5 164.438C58.875 163.646 60.1042 162.792 61.1875 161.875C62.3125 160.917 63.2917 159.958 64.125 159H74.5625V191H3.0625V166.062L10.5625 164.625V129.062L3.0625 127.625V103H55.6875V127.625L48.125 129.062V167ZM83.0625 103H135.688V127.625L128.188 129.062V164.625L135.688 166.062V191H83.0625V166.062L90.5625 164.625V129.062L83.0625 127.625V103ZM177.875 144.812V164.625L185.438 166V191H147.812V166.062L155.312 164.625V129.062L147.812 127.625V103H192.938L223 150.438V129.188L215.5 127.625V103H253.062V127.625L245.562 129.062V164.625L253.062 166.062V191H207.938L177.875 144.812ZM333.438 103C339.104 104.208 344.208 105.917 348.75 108.125C353.292 110.333 357.146 113.167 360.312 116.625C363.521 120.042 365.979 124.167 367.688 129C369.396 133.792 370.25 139.396 370.25 145.812C370.25 151.438 369.583 156.479 368.25 160.938C366.958 165.354 365.083 169.25 362.625 172.625C360.208 175.958 357.229 178.792 353.688 181.125C350.146 183.458 346.146 185.354 341.688 186.812C337.271 188.271 332.396 189.333 327.062 190C321.771 190.667 316.125 191 310.125 191H265V166.062L272.5 164.625V126.938L265 125.5V103H333.438ZM315.875 164.625C318.667 164.625 321.021 164.417 322.938 164C324.854 163.583 326.417 163 327.625 162.25C328.875 161.5 329.833 160.562 330.5 159.438C331.208 158.312 331.708 157.062 332 155.688C332.333 154.312 332.521 152.792 332.562 151.125C332.604 149.458 332.625 147.688 332.625 145.812C332.625 143.938 332.604 142.167 332.562 140.5C332.521 138.833 332.333 137.312 332 135.938C331.708 134.521 331.208 133.271 330.5 132.188C329.833 131.062 328.875 130.125 327.625 129.375C326.417 128.583 324.854 127.979 322.938 127.562C321.021 127.146 318.667 126.938 315.875 126.938H310.125V164.625H315.875ZM454.875 103C461.042 104.458 465.646 106.812 468.688 110.062C471.771 113.312 473.312 117.729 473.312 123.312C473.312 127.062 472.896 130.229 472.062 132.812C471.229 135.396 470.167 137.521 468.875 139.188C467.625 140.854 466.25 142.146 464.75 143.062C463.292 143.938 461.917 144.583 460.625 145C459.375 145.417 458.312 145.667 457.438 145.75C456.604 145.792 456.188 145.812 456.188 145.812C457.688 145.896 459.312 146.083 461.062 146.375C462.812 146.625 464.542 147.042 466.25 147.625C467.958 148.167 469.604 148.896 471.188 149.812C472.771 150.688 474.146 151.812 475.312 153.188C476.521 154.562 477.479 156.188 478.188 158.062C478.938 159.938 479.312 162.125 479.312 164.625C479.312 168.375 478.833 171.875 477.875 175.125C476.917 178.333 475.208 181.125 472.75 183.5C470.333 185.833 467.062 187.667 462.938 189C458.812 190.333 453.562 191 447.188 191H379V166.062L386.5 164.625V126.938L379 125.5V103H454.875ZM441.688 130.375C441.688 128.25 441.333 126.625 440.625 125.5C439.958 124.333 439.042 123.479 437.875 122.938C436.75 122.396 435.458 122.083 434 122C432.583 121.917 431.125 121.875 429.625 121.875H424.125V139.625H429.625C431.125 139.625 432.583 139.583 434 139.5C435.458 139.375 436.75 139.042 437.875 138.5C439.042 137.917 439.958 137 440.625 135.75C441.333 134.5 441.688 132.708 441.688 130.375ZM441.688 160.312C441.688 158.188 441.333 156.562 440.625 155.438C439.958 154.312 439.042 153.479 437.875 152.938C436.75 152.396 435.458 152.083 434 152C432.583 151.917 431.125 151.875 429.625 151.875H424.125V169.625H429.625C431.125 169.625 432.583 169.583 434 169.5C435.458 169.375 436.75 169.021 437.875 168.438C439.042 167.854 439.958 166.938 440.625 165.688C441.333 164.438 441.688 162.646 441.688 160.312ZM533.125 141.688L550.438 138V155.812L533.125 152.062V165.875C535.625 165.875 538.042 165.708 540.375 165.375C542.708 165 544.875 164.5 546.875 163.875C548.875 163.25 550.708 162.521 552.375 161.688C554.042 160.854 555.479 159.958 556.688 159H565.25V191H488V166.062L495.5 164.625V129.188L488 127.75V103H565.25V135H556.688C555.479 134.083 554.042 133.208 552.375 132.375C550.708 131.542 548.875 130.812 546.875 130.188C544.875 129.562 542.708 129.062 540.375 128.688C538.042 128.312 535.625 128.125 533.125 128.125V141.688ZM673 191H635.625C634.458 188.833 633.25 186.542 632 184.125C630.75 181.667 629.542 179.104 628.375 176.438C627.208 173.771 626.104 171.021 625.062 168.188C624.062 165.354 623.208 162.438 622.5 159.438H620.438V191H575.312V166.062L582.812 164.625V129.062L575.312 127.625V103H626.5C633.292 103 639.146 103.292 644.062 103.875C649.021 104.458 653.208 105.312 656.625 106.438C660.083 107.562 662.875 108.938 665 110.562C667.125 112.146 668.771 113.958 669.938 116C671.146 118 671.958 120.208 672.375 122.625C672.792 125.042 673 127.604 673 130.312C673 133.062 672.729 135.562 672.188 137.812C671.688 140.062 670.771 142.125 669.438 144C668.104 145.875 666.271 147.604 663.938 149.188C661.646 150.729 658.708 152.188 655.125 153.562C655.875 155.062 656.979 156.854 658.438 158.938C659.938 160.979 661.562 163.083 663.312 165.25C665.062 167.375 666.792 169.438 668.5 171.438C670.25 173.438 671.75 175.146 673 176.562V191ZM620.438 142.5C622.729 142.5 624.792 142.396 626.625 142.188C628.5 141.938 630.083 141.438 631.375 140.688C632.708 139.896 633.729 138.75 634.438 137.25C635.146 135.75 635.5 133.729 635.5 131.188C635.5 128.688 635.146 126.688 634.438 125.188C633.729 123.688 632.708 122.542 631.375 121.75C630.083 120.917 628.5 120.375 626.625 120.125C624.792 119.875 622.729 119.75 620.438 119.75V142.5ZM680.688 145.812C680.688 137.979 681.875 131.229 684.25 125.562C686.625 119.854 690 115.167 694.375 111.5C698.75 107.792 704.021 105.062 710.188 103.312C716.396 101.521 723.312 100.625 730.938 100.625C735.562 100.625 739.729 100.854 743.438 101.312C747.188 101.771 750.542 102.354 753.5 103.062C756.5 103.771 759.125 104.562 761.375 105.438C763.667 106.271 765.688 107.083 767.438 107.875V135.062H749.75C748.792 133.688 747.833 132.5 746.875 131.5C745.958 130.458 744.958 129.625 743.875 129C742.792 128.333 741.583 127.833 740.25 127.5C738.917 127.167 737.354 127 735.562 127C733.396 127 731.271 127.333 729.188 128C727.146 128.625 725.312 129.688 723.688 131.188C722.104 132.646 720.812 134.583 719.812 137C718.854 139.375 718.375 142.312 718.375 145.812C718.375 149.896 718.771 153.25 719.562 155.875C720.354 158.458 721.5 160.521 723 162.062C724.5 163.562 726.333 164.604 728.5 165.188C730.708 165.771 733.229 166.062 736.062 166.062C737.562 166.062 739.104 165.958 740.688 165.75C742.312 165.542 744.062 165.146 745.938 164.562V157.438H733.375V142.062H769.938V183.562C766.854 184.854 763.583 186.062 760.125 187.188C756.667 188.312 753.188 189.292 749.688 190.125C746.229 190.958 742.833 191.5 739.5 191.75C736.167 192 733.083 192.125 730.25 192.125C723.292 192.125 716.792 191.292 710.75 189.625C704.708 187.958 699.458 185.188 695 181.312C690.542 177.438 687.042 172.562 684.5 166.688C681.958 160.771 680.688 153.812 680.688 145.812Z" fill="#F1A008"/>
</svg>
