<svg width="485" height="217" viewBox="0 0 485 217" fill="none" xmlns="http://www.w3.org/2000/svg">
<path d="M2.144 46.176C2.4 41.9093 3.46667 38.368 5.344 35.552C7.22133 32.736 9.61067 30.4747 12.512 28.768C15.4133 27.0613 18.656 25.8667 22.24 25.184C25.9093 24.416 29.5787 24.032 33.248 24.032C36.576 24.032 39.9467 24.288 43.36 24.8C46.7733 25.2267 49.888 26.1227 52.704 27.488C55.52 28.8533 57.824 30.7733 59.616 33.248C61.408 35.6373 62.304 38.8373 62.304 42.848V77.28C62.304 80.2667 62.4747 83.1253 62.816 85.856C63.1573 88.5867 63.7547 90.6347 64.608 92H46.176C45.8347 90.976 45.536 89.952 45.28 88.928C45.1093 87.8187 44.9813 86.7093 44.896 85.6C41.9947 88.5867 38.5813 90.6773 34.656 91.872C30.7307 93.0667 26.72 93.664 22.624 93.664C19.4667 93.664 16.5227 93.28 13.792 92.512C11.0613 91.744 8.672 90.5493 6.624 88.928C4.576 87.3067 2.95467 85.2587 1.76 82.784C0.650667 80.3093 0.0960002 77.3653 0.0960002 73.952C0.0960002 70.1973 0.736 67.1253 2.016 64.736C3.38133 62.2613 5.088 60.2987 7.136 58.848C9.26933 57.3973 11.6587 56.3307 14.304 55.648C17.0347 54.88 19.7653 54.2827 22.496 53.856C25.2267 53.4293 27.9147 53.088 30.56 52.832C33.2053 52.576 35.552 52.192 37.6 51.68C39.648 51.168 41.2693 50.4427 42.464 49.504C43.6587 48.48 44.2133 47.0293 44.128 45.152C44.128 43.1893 43.7867 41.6533 43.104 40.544C42.5067 39.3493 41.6533 38.4533 40.544 37.856C39.52 37.1733 38.2827 36.7467 36.832 36.576C35.4667 36.32 33.9733 36.192 32.352 36.192C28.768 36.192 25.952 36.96 23.904 38.496C21.856 40.032 20.6613 42.592 20.32 46.176H2.144ZM44.128 59.616C43.36 60.2987 42.3787 60.8533 41.184 61.28C40.0747 61.6213 38.8373 61.92 37.472 62.176C36.192 62.432 34.8267 62.6453 33.376 62.816C31.9253 62.9867 30.4747 63.2 29.024 63.456C27.6587 63.712 26.2933 64.0533 24.928 64.48C23.648 64.9067 22.496 65.504 21.472 66.272C20.5333 66.9547 19.7653 67.8507 19.168 68.96C18.5707 70.0693 18.272 71.4773 18.272 73.184C18.272 74.8053 18.5707 76.1707 19.168 77.28C19.7653 78.3893 20.576 79.2853 21.6 79.968C22.624 80.5653 23.8187 80.992 25.184 81.248C26.5493 81.504 27.9573 81.632 29.408 81.632C32.992 81.632 35.7653 81.0347 37.728 79.84C39.6907 78.6453 41.1413 77.2373 42.08 75.616C43.0187 73.9093 43.5733 72.2027 43.744 70.496C44 68.7893 44.128 67.424 44.128 66.4V59.616ZM76.412 25.824H93.692V35.04H94.076C96.38 31.2 99.3667 28.4267 103.036 26.72C106.705 24.928 110.46 24.032 114.3 24.032C119.164 24.032 123.132 24.7147 126.204 26.08C129.361 27.36 131.836 29.1947 133.628 31.584C135.42 33.888 136.657 36.7467 137.34 40.16C138.108 43.488 138.492 47.2 138.492 51.296V92H120.316V54.624C120.316 49.1627 119.463 45.1093 117.756 42.464C116.049 39.7333 113.02 38.368 108.668 38.368C103.719 38.368 100.135 39.8613 97.916 42.848C95.6973 45.7493 94.588 50.5707 94.588 57.312V92H76.412V25.824ZM199.263 58.72C199.263 55.9893 199.007 53.3867 198.495 50.912C197.983 48.352 197.087 46.1333 195.807 44.256C194.612 42.2933 193.034 40.7147 191.071 39.52C189.108 38.3253 186.634 37.728 183.647 37.728C180.66 37.728 178.143 38.3253 176.095 39.52C174.047 40.7147 172.383 42.2933 171.103 44.256C169.908 46.2187 169.012 48.48 168.415 51.04C167.903 53.5147 167.647 56.1173 167.647 58.848C167.647 61.408 167.946 63.968 168.543 66.528C169.14 69.088 170.079 71.392 171.359 73.44C172.724 75.4027 174.388 77.024 176.351 78.304C178.399 79.4987 180.831 80.096 183.647 80.096C186.634 80.096 189.108 79.4987 191.071 78.304C193.119 77.1093 194.74 75.5307 195.935 73.568C197.13 71.52 197.983 69.216 198.495 66.656C199.007 64.096 199.263 61.4507 199.263 58.72ZM199.519 83.552H199.263C197.13 87.136 194.314 89.7387 190.815 91.36C187.402 92.896 183.519 93.664 179.167 93.664C174.218 93.664 169.866 92.7253 166.111 90.848C162.356 88.8853 159.242 86.2827 156.767 83.04C154.378 79.712 152.543 75.9147 151.263 71.648C150.068 67.3813 149.471 62.944 149.471 58.336C149.471 53.8987 150.068 49.632 151.263 45.536C152.543 41.3547 154.378 37.6853 156.767 34.528C159.242 31.3707 162.314 28.8533 165.983 26.976C169.652 25.0133 173.919 24.032 178.783 24.032C182.708 24.032 186.42 24.8853 189.919 26.592C193.503 28.2133 196.319 30.6453 198.367 33.888H198.623V0.607994H216.799V92H199.519V83.552ZM275.081 51.808C274.228 47.2 272.692 43.7013 270.473 41.312C268.34 38.9227 265.054 37.728 260.617 37.728C257.716 37.728 255.284 38.24 253.321 39.264C251.444 40.2027 249.908 41.3973 248.713 42.848C247.604 44.2987 246.793 45.8347 246.281 47.456C245.854 49.0773 245.598 50.528 245.513 51.808H275.081ZM245.513 63.328C245.769 69.216 247.262 73.4827 249.993 76.128C252.724 78.7733 256.649 80.096 261.769 80.096C265.438 80.096 268.596 79.2 271.241 77.408C273.886 75.5307 275.508 73.568 276.105 71.52H292.105C289.545 79.456 285.62 85.1307 280.329 88.544C275.038 91.9573 268.638 93.664 261.129 93.664C255.924 93.664 251.23 92.8533 247.049 91.232C242.868 89.5253 239.326 87.136 236.425 84.064C233.524 80.992 231.262 77.3227 229.641 73.056C228.105 68.7893 227.337 64.096 227.337 58.976C227.337 54.0267 228.148 49.4187 229.769 45.152C231.39 40.8853 233.694 37.216 236.681 34.144C239.668 30.9867 243.209 28.512 247.305 26.72C251.486 24.928 256.094 24.032 261.129 24.032C266.761 24.032 271.668 25.1413 275.849 27.36C280.03 29.4933 283.444 32.3947 286.089 36.064C288.82 39.7333 290.782 43.9147 291.977 48.608C293.172 53.3013 293.598 58.208 293.257 63.328H245.513ZM304.037 25.824H321.317V38.112H321.573C322.426 36.064 323.578 34.1867 325.029 32.48C326.48 30.688 328.144 29.1947 330.021 28C331.898 26.72 333.904 25.7387 336.037 25.056C338.17 24.3733 340.389 24.032 342.693 24.032C343.888 24.032 345.21 24.2453 346.661 24.672V41.568C345.808 41.3973 344.784 41.2693 343.589 41.184C342.394 41.0133 341.242 40.928 340.133 40.928C336.805 40.928 333.989 41.4827 331.685 42.592C329.381 43.7013 327.504 45.2373 326.053 47.2C324.688 49.0773 323.706 51.296 323.109 53.856C322.512 56.416 322.213 59.1893 322.213 62.176V92H304.037V25.824ZM367.867 70.496C367.867 72.4587 368.251 74.1653 369.019 75.616C369.872 76.9813 370.939 78.1333 372.219 79.072C373.499 79.9253 374.95 80.5653 376.571 80.992C378.278 81.4187 380.027 81.632 381.819 81.632C383.099 81.632 384.422 81.504 385.787 81.248C387.238 80.9067 388.518 80.4373 389.627 79.84C390.822 79.1573 391.803 78.304 392.571 77.28C393.339 76.1707 393.723 74.8053 393.723 73.184C393.723 70.4533 391.888 68.4053 388.219 67.04C384.635 65.6747 379.6 64.3093 373.115 62.944C370.47 62.3467 367.867 61.664 365.307 60.896C362.832 60.0427 360.614 58.976 358.651 57.696C356.688 56.3307 355.11 54.6667 353.915 52.704C352.72 50.656 352.123 48.1813 352.123 45.28C352.123 41.0133 352.934 37.5147 354.555 34.784C356.262 32.0533 358.48 29.92 361.211 28.384C363.942 26.7627 367.014 25.6533 370.427 25.056C373.84 24.3733 377.339 24.032 380.923 24.032C384.507 24.032 387.963 24.3733 391.291 25.056C394.704 25.7387 397.734 26.8907 400.379 28.512C403.024 30.1333 405.2 32.3093 406.907 35.04C408.699 37.6853 409.766 41.056 410.107 45.152H392.827C392.571 41.6533 391.248 39.3067 388.859 38.112C386.47 36.832 383.654 36.192 380.411 36.192C379.387 36.192 378.278 36.2773 377.083 36.448C375.888 36.5333 374.779 36.7893 373.755 37.216C372.816 37.6427 372.006 38.2827 371.323 39.136C370.64 39.904 370.299 40.9707 370.299 42.336C370.299 43.9573 370.896 45.28 372.091 46.304C373.286 47.328 374.822 48.1813 376.699 48.864C378.662 49.4613 380.88 50.016 383.355 50.528C385.83 51.04 388.347 51.5947 390.907 52.192C393.552 52.7893 396.112 53.5147 398.587 54.368C401.147 55.2213 403.408 56.3733 405.371 57.824C407.334 59.1893 408.912 60.9387 410.107 63.072C411.302 65.12 411.899 67.68 411.899 70.752C411.899 75.104 411.003 78.7733 409.211 81.76C407.504 84.6613 405.243 87.008 402.427 88.8C399.611 90.592 396.368 91.8293 392.699 92.512C389.115 93.28 385.446 93.664 381.691 93.664C377.851 93.664 374.096 93.28 370.427 92.512C366.758 91.744 363.472 90.464 360.571 88.672C357.755 86.88 355.408 84.5333 353.531 81.632C351.739 78.6453 350.758 74.9333 350.587 70.496H367.867ZM3.424 100.608H21.6V192H3.424V100.608ZM54.6 115.584H36.424V100.608H54.6V115.584ZM36.424 125.824H54.6V192H36.424V125.824ZM68.912 125.824H86.192V135.04H86.576C88.88 131.2 91.8667 128.427 95.536 126.72C99.2053 124.928 102.96 124.032 106.8 124.032C111.664 124.032 115.632 124.715 118.704 126.08C121.861 127.36 124.336 129.195 126.128 131.584C127.92 133.888 129.157 136.747 129.84 140.16C130.608 143.488 130.992 147.2 130.992 151.296V192H112.816V154.624C112.816 149.163 111.963 145.109 110.256 142.464C108.549 139.733 105.52 138.368 101.168 138.368C96.2187 138.368 92.6347 139.861 90.416 142.848C88.1973 145.749 87.088 150.571 87.088 157.312V192H68.912V125.824ZM191.763 158.72C191.763 155.989 191.507 153.387 190.995 150.912C190.483 148.352 189.587 146.133 188.307 144.256C187.112 142.293 185.534 140.715 183.571 139.52C181.608 138.325 179.134 137.728 176.147 137.728C173.16 137.728 170.643 138.325 168.595 139.52C166.547 140.715 164.883 142.293 163.603 144.256C162.408 146.219 161.512 148.48 160.915 151.04C160.403 153.515 160.147 156.117 160.147 158.848C160.147 161.408 160.446 163.968 161.043 166.528C161.64 169.088 162.579 171.392 163.859 173.44C165.224 175.403 166.888 177.024 168.851 178.304C170.899 179.499 173.331 180.096 176.147 180.096C179.134 180.096 181.608 179.499 183.571 178.304C185.619 177.109 187.24 175.531 188.435 173.568C189.63 171.52 190.483 169.216 190.995 166.656C191.507 164.096 191.763 161.451 191.763 158.72ZM192.019 183.552H191.763C189.63 187.136 186.814 189.739 183.315 191.36C179.902 192.896 176.019 193.664 171.667 193.664C166.718 193.664 162.366 192.725 158.611 190.848C154.856 188.885 151.742 186.283 149.267 183.04C146.878 179.712 145.043 175.915 143.763 171.648C142.568 167.381 141.971 162.944 141.971 158.336C141.971 153.899 142.568 149.632 143.763 145.536C145.043 141.355 146.878 137.685 149.267 134.528C151.742 131.371 154.814 128.853 158.483 126.976C162.152 125.013 166.419 124.032 171.283 124.032C175.208 124.032 178.92 124.885 182.419 126.592C186.003 128.213 188.819 130.645 190.867 133.888H191.123V100.608H209.299V192H192.019V183.552ZM271.549 158.976C271.549 156.16 271.25 153.472 270.653 150.912C270.056 148.352 269.117 146.091 267.837 144.128C266.557 142.165 264.936 140.629 262.973 139.52C261.096 138.325 258.792 137.728 256.061 137.728C253.416 137.728 251.112 138.325 249.149 139.52C247.186 140.629 245.565 142.165 244.285 144.128C243.005 146.091 242.066 148.352 241.469 150.912C240.872 153.472 240.573 156.16 240.573 158.976C240.573 161.707 240.872 164.352 241.469 166.912C242.066 169.472 243.005 171.733 244.285 173.696C245.565 175.659 247.186 177.237 249.149 178.432C251.112 179.541 253.416 180.096 256.061 180.096C258.792 180.096 261.096 179.541 262.973 178.432C264.936 177.237 266.557 175.659 267.837 173.696C269.117 171.733 270.056 169.472 270.653 166.912C271.25 164.352 271.549 161.707 271.549 158.976ZM223.037 100.608H241.213V133.888H241.469C243.688 130.475 246.674 128 250.429 126.464C254.269 124.843 258.237 124.032 262.333 124.032C265.661 124.032 268.946 124.715 272.189 126.08C275.432 127.445 278.333 129.536 280.893 132.352C283.538 135.168 285.672 138.795 287.293 143.232C288.914 147.584 289.725 152.789 289.725 158.848C289.725 164.907 288.914 170.155 287.293 174.592C285.672 178.944 283.538 182.528 280.893 185.344C278.333 188.16 275.432 190.251 272.189 191.616C268.946 192.981 265.661 193.664 262.333 193.664C257.469 193.664 253.117 192.896 249.277 191.36C245.437 189.824 242.536 187.221 240.573 183.552H240.317V192H223.037V100.608ZM345.831 151.808C344.978 147.2 343.442 143.701 341.223 141.312C339.09 138.923 335.804 137.728 331.367 137.728C328.466 137.728 326.034 138.24 324.071 139.264C322.194 140.203 320.658 141.397 319.463 142.848C318.354 144.299 317.543 145.835 317.031 147.456C316.604 149.077 316.348 150.528 316.263 151.808H345.831ZM316.263 163.328C316.519 169.216 318.012 173.483 320.743 176.128C323.474 178.773 327.399 180.096 332.519 180.096C336.188 180.096 339.346 179.2 341.991 177.408C344.636 175.531 346.258 173.568 346.855 171.52H362.855C360.295 179.456 356.37 185.131 351.079 188.544C345.788 191.957 339.388 193.664 331.879 193.664C326.674 193.664 321.98 192.853 317.799 191.232C313.618 189.525 310.076 187.136 307.175 184.064C304.274 180.992 302.012 177.323 300.391 173.056C298.855 168.789 298.087 164.096 298.087 158.976C298.087 154.027 298.898 149.419 300.519 145.152C302.14 140.885 304.444 137.216 307.431 134.144C310.418 130.987 313.959 128.512 318.055 126.72C322.236 124.928 326.844 124.032 331.879 124.032C337.511 124.032 342.418 125.141 346.599 127.36C350.78 129.493 354.194 132.395 356.839 136.064C359.57 139.733 361.532 143.915 362.727 148.608C363.922 153.301 364.348 158.208 364.007 163.328H316.263ZM374.787 125.824H392.067V138.112H392.323C393.176 136.064 394.328 134.187 395.779 132.48C397.23 130.688 398.894 129.195 400.771 128C402.648 126.72 404.654 125.739 406.787 125.056C408.92 124.373 411.139 124.032 413.443 124.032C414.638 124.032 415.96 124.245 417.411 124.672V141.568C416.558 141.397 415.534 141.269 414.339 141.184C413.144 141.013 411.992 140.928 410.883 140.928C407.555 140.928 404.739 141.483 402.435 142.592C400.131 143.701 398.254 145.237 396.803 147.2C395.438 149.077 394.456 151.296 393.859 153.856C393.262 156.416 392.963 159.189 392.963 162.176V192H374.787V125.824ZM451.76 176.384C454.32 176.384 456.581 175.872 458.544 174.848C460.507 173.824 462.128 172.459 463.408 170.752C464.688 169.045 465.627 167.125 466.224 164.992C466.907 162.773 467.248 160.469 467.248 158.08C467.248 155.349 466.992 152.789 466.48 150.4C465.968 147.925 465.115 145.749 463.92 143.872C462.725 141.995 461.147 140.501 459.184 139.392C457.221 138.283 454.747 137.728 451.76 137.728C449.2 137.728 446.981 138.24 445.104 139.264C443.312 140.288 441.776 141.696 440.496 143.488C439.301 145.195 438.405 147.2 437.808 149.504C437.296 151.723 437.04 154.069 437.04 156.544C437.04 158.933 437.253 161.323 437.68 163.712C438.192 166.016 439.003 168.107 440.112 169.984C441.307 171.861 442.843 173.397 444.72 174.592C446.597 175.787 448.944 176.384 451.76 176.384ZM484.528 187.776C484.528 190.421 484.144 193.451 483.376 196.864C482.693 200.277 481.157 203.435 478.768 206.336C476.379 209.323 472.923 211.84 468.4 213.888C463.877 215.936 457.819 216.96 450.224 216.96C446.981 216.96 443.653 216.533 440.24 215.68C436.912 214.912 433.84 213.675 431.024 211.968C428.293 210.261 425.989 208.043 424.112 205.312C422.32 202.667 421.296 199.467 421.04 195.712H439.088C439.941 199.125 441.605 201.472 444.08 202.752C446.555 204.117 449.413 204.8 452.656 204.8C457.776 204.8 461.488 203.264 463.792 200.192C466.181 197.12 467.333 193.237 467.248 188.544V179.84H466.992C465.029 183.339 462.213 185.941 458.544 187.648C454.96 189.269 451.163 190.08 447.152 190.08C442.203 190.08 437.936 189.227 434.352 187.52C430.768 185.728 427.824 183.339 425.52 180.352C423.216 177.28 421.509 173.739 420.4 169.728C419.376 165.632 418.864 161.323 418.864 156.8C418.864 152.533 419.461 148.437 420.656 144.512C421.936 140.501 423.771 137.003 426.16 134.016C428.549 130.944 431.493 128.512 434.992 126.72C438.576 124.928 442.672 124.032 447.28 124.032C451.632 124.032 455.429 124.843 458.672 126.464C462 128.085 464.773 130.816 466.992 134.656H467.248V125.824H484.528V187.776Z" fill="#F1A008"/>
</svg>
