<svg width="337" height="98" viewBox="0 0 337 98" fill="none" xmlns="http://www.w3.org/2000/svg">
<path d="M52.528 75.232C52.6133 77.4507 52.7413 79.6267 52.912 81.76V81.632V81.76C52.912 81.9307 52.9973 82.7413 53.168 84.192C53.3387 85.5573 53.424 87.4773 53.424 89.952C53.424 90.8907 52.9547 91.5733 52.016 92C50.3093 91.8293 48.56 91.7013 46.768 91.616C45.0613 91.5307 43.3547 91.488 41.648 91.488C38.4907 91.488 36.1867 91.6587 34.736 92C34.5653 91.744 34.352 91.5307 34.096 91.36C33.9253 91.104 33.84 90.8053 33.84 90.464C33.84 89.7813 33.8827 89.184 33.968 88.672C34.1387 88.16 34.2667 87.5627 34.352 86.88C33.1573 87.392 32.0907 87.9467 31.152 88.544C30.2987 89.1413 29.4027 89.7387 28.464 90.336C27.5253 90.848 26.5013 91.2747 25.392 91.616C24.368 91.9573 23.088 92.128 21.552 92.128C17.712 92.128 14.4693 91.2747 11.824 89.568C9.17867 87.776 7.04533 85.4293 5.424 82.528C3.80267 79.6267 2.608 76.2987 1.84 72.544C1.15733 68.704 0.816 64.736 0.816 60.64C0.816 58.1653 0.901333 55.9893 1.072 54.112C1.24267 52.1493 1.456 50.4853 1.712 49.12C1.968 47.584 2.26667 46.176 2.608 44.896C2.69333 44.7253 2.864 44.2133 3.12 43.36C3.46133 42.5067 3.888 41.3547 4.4 39.904C7.04533 37.344 9.30667 35.3387 11.184 33.888C13.1467 32.352 14.8107 31.2 16.176 30.432C17.5413 29.664 18.608 29.1947 19.376 29.024C20.2293 28.768 20.8693 28.64 21.296 28.64C21.552 28.64 21.7653 28.5973 21.936 28.512C22.192 28.3413 22.448 28.256 22.704 28.256C25.3493 28.3413 27.7387 28.5973 29.872 29.024C32.0907 29.3653 33.7973 30.2613 34.992 31.712C35.0773 31.6267 35.12 31.2427 35.12 30.56V29.152C35.12 28.7253 35.2053 28.1707 35.376 27.488C37.5093 27.9147 40.112 28.2133 43.184 28.384C46.256 28.5547 49.1573 28.64 51.888 28.64C52.0587 28.64 52.144 28.5547 52.144 28.384C52.2293 28.128 52.3573 28 52.528 28C52.9547 28 53.2107 28.2987 53.296 28.896C53.3813 29.408 53.424 29.8347 53.424 30.176C53.424 33.248 53.3813 35.7227 53.296 37.6C53.296 39.392 53.2533 41.0133 53.168 42.464C53.0827 43.9147 52.9547 45.408 52.784 46.944C52.6987 48.48 52.6133 50.528 52.528 53.088V55.648C52.528 57.184 52.4853 58.5493 52.4 59.744C52.4 60.8533 52.4 61.792 52.4 62.56V68.32C52.4 70.624 52.4427 72.928 52.528 75.232ZM51.888 48.864C51.888 47.1573 51.888 45.3227 51.888 43.36C51.888 41.4827 51.9733 39.648 52.144 37.856C52.3147 35.9787 52.4 34.144 52.4 32.352C52.4 31.072 52.1867 30.3467 51.76 30.176C51.4187 30.176 51.2907 30.3893 51.376 30.816C51.5467 31.1573 51.4613 31.328 51.12 31.328C50.6933 31.328 50.224 31.2427 49.712 31.072C49.2853 30.9013 48.8587 30.7307 48.432 30.56C47.3227 31.4133 45.872 31.84 44.08 31.84C42.1173 31.84 39.9413 31.3707 37.552 30.432C37.296 31.1147 37.0827 31.84 36.912 32.608C36.7413 33.376 36.4 34.016 35.888 34.528C34.9493 34.016 34.0107 33.2907 33.072 32.352C32.2187 31.4133 31.3653 30.944 30.512 30.944L30.64 30.56C30.64 30.3893 30.1707 30.2187 29.232 30.048C28.2933 29.792 27.4827 29.664 26.8 29.664C26.1173 29.664 25.264 29.7067 24.24 29.792C23.3013 29.8773 22.32 30.0053 21.296 30.176C20.272 30.2613 19.3333 30.432 18.48 30.688C17.712 30.8587 17.1573 31.072 16.816 31.328C14.768 33.0347 12.592 34.7413 10.288 36.448C7.984 38.0693 6.32 39.904 5.296 41.952C4.784 42.8907 4.4 44.0853 4.144 45.536C3.888 46.9013 3.67467 48.352 3.504 49.888C3.33333 51.3387 3.20533 52.7467 3.12 54.112C3.12 55.4773 3.12 56.5867 3.12 57.44C3.12 60.4267 3.20533 63.5413 3.376 66.784C3.632 70.0267 4.18667 73.0987 5.04 76C5.89333 78.816 7.13067 81.3333 8.752 83.552C10.4587 85.6853 12.8053 87.1787 15.792 88.032C16.2187 88.032 16.7307 88.2027 17.328 88.544C17.9253 88.8 18.6933 88.928 19.632 88.928C20.4853 88.928 21.424 88.8427 22.448 88.672C23.5573 88.5013 24.5813 88.3307 25.52 88.16C26.544 87.904 27.3973 87.648 28.08 87.392C28.848 87.136 29.3173 86.88 29.488 86.624C29.6587 86.624 29.7013 86.752 29.616 87.008C29.616 87.1787 29.7013 87.264 29.872 87.264C30.8107 86.5813 31.7067 85.8987 32.56 85.216C33.4987 84.448 34.48 83.7653 35.504 83.168C35.5893 83.2533 35.632 83.68 35.632 84.448C35.632 85.1307 35.5467 85.856 35.376 86.624C35.2907 87.3067 35.248 87.9893 35.248 88.672C35.248 89.3547 35.4187 89.7813 35.76 89.952C36.1867 90.1227 36.6987 90.208 37.296 90.208C39.2587 90.208 41.0933 90.08 42.8 89.824C44.592 89.568 46.384 89.44 48.176 89.44C49.456 89.44 50.736 89.568 52.016 89.824C51.9307 86.24 51.8453 82.784 51.76 79.456C51.76 76.0427 51.76 72.6293 51.76 69.216C51.76 67.7653 51.76 66.4853 51.76 65.376C51.8453 64.2667 51.888 63.1573 51.888 62.048C51.888 60.8533 51.888 59.5733 51.888 58.208C51.9733 56.8427 52.016 55.2213 52.016 53.344C52.016 51.9787 51.9733 50.4853 51.888 48.864ZM26.032 43.744C27.9093 43.6587 30.0853 43.5733 32.56 43.488C34.0107 44.1707 34.992 45.28 35.504 46.816C36.1013 48.352 36.4 50.144 36.4 52.192C36.4 54.752 36.2293 57.2267 35.888 59.616C35.5467 62.0053 35.1627 64.1813 34.736 66.144C34.3093 68.0213 33.9253 69.6 33.584 70.88C33.2427 72.0747 33.072 72.7573 33.072 72.928H33.2V72.032C32.0053 72.6293 30.8107 73.2693 29.616 73.952C28.4213 74.6347 27.1413 74.976 25.776 74.976C24.8373 74.976 23.728 74.6347 22.448 73.952C21.168 73.2693 19.9307 72.3307 18.736 71.136C17.5413 69.856 16.5173 68.32 15.664 66.528C14.8107 64.736 14.384 62.7307 14.384 60.512C14.384 59.232 14.512 57.7813 14.768 56.16C15.1093 54.5387 15.536 52.96 16.048 51.424C16.6453 49.888 17.328 48.5227 18.096 47.328C18.9493 46.1333 19.888 45.3227 20.912 44.896C22.5333 44.2133 24.24 43.8293 26.032 43.744ZM32.048 66.912C33.1573 64.1813 33.8827 61.1947 34.224 57.952C34.3093 57.696 34.352 57.184 34.352 56.416V55.008C34.352 52.2773 33.7547 50.1013 32.56 48.48C31.4507 46.8587 29.5307 46.048 26.8 46.048C23.728 46.048 21.3813 47.0293 19.76 48.992C18.1387 50.8693 17.328 53.3867 17.328 56.544C17.328 59.0187 17.456 61.28 17.712 63.328C17.968 65.376 18.48 67.168 19.248 68.704C20.016 70.1547 21.04 71.3067 22.32 72.16C23.6853 73.0133 25.4773 73.4827 27.696 73.568C29.488 71.8613 30.9387 69.6427 32.048 66.912ZM79.867 94.176C79.7817 94.2613 79.483 94.304 78.971 94.304L65.019 93.152C64.5923 93.2373 64.2937 93.4933 64.123 93.92C64.0377 94.3467 63.8243 94.56 63.483 94.56C62.8857 94.56 62.5017 94.3467 62.331 93.92C62.1603 93.5787 62.0323 93.152 61.947 92.64C61.947 92.2133 61.9043 91.7867 61.819 91.36C61.7337 90.9333 61.4777 90.6773 61.051 90.592C61.051 90.2507 61.1363 90.0373 61.307 89.952C61.563 89.8667 61.691 89.6107 61.691 89.184C61.435 86.7093 61.2643 84.192 61.179 81.632C61.0937 79.072 61.051 76.4693 61.051 73.824C61.051 68.704 61.179 63.6693 61.435 58.72C61.691 53.6853 61.9043 48.736 62.075 43.872C62.1603 41.824 62.2883 39.8613 62.459 37.984C62.715 36.0213 62.843 34.1867 62.843 32.48C62.7577 32.0533 62.6723 31.6267 62.587 31.2C62.587 30.7733 62.587 30.3893 62.587 30.048C62.587 29.536 62.6723 29.0667 62.843 28.64C63.0137 28.2133 63.3977 27.7867 63.995 27.36C64.8483 27.5307 65.659 27.7013 66.427 27.872C67.2803 27.9573 68.1763 28 69.115 28C70.907 28 72.6563 27.8293 74.363 27.488C76.155 27.1467 77.8617 26.976 79.483 26.976C79.9097 26.976 80.2937 27.0187 80.635 27.104C81.0617 27.104 81.4883 27.1467 81.915 27.232C81.4883 28.1707 81.1897 29.3227 81.019 30.688C80.9337 32.0533 80.8057 33.0347 80.635 33.632V34.016C81.2323 34.016 81.659 33.8453 81.915 33.504C82.2563 33.0773 82.6403 32.736 83.067 32.48C83.7497 32.0533 84.5177 31.712 85.371 31.456C86.3097 31.2 87.2057 30.8587 88.059 30.432C88.9977 30.0053 89.8937 29.536 90.747 29.024C91.6003 28.512 92.539 28.256 93.563 28.256C93.9897 28.256 94.459 28.3413 94.971 28.512C95.483 28.5973 96.0803 28.64 96.763 28.64C97.6163 28.64 98.4697 28.5973 99.323 28.512C100.176 28.4267 101.03 28.384 101.883 28.384C104.784 28.384 107.088 29.3227 108.795 31.2C110.502 33.0773 111.782 35.424 112.635 38.24C113.488 41.056 114 44.128 114.171 47.456C114.427 50.784 114.555 53.8987 114.555 56.8C114.555 60.64 114.342 64.6933 113.915 68.96C113.574 73.1413 113.318 77.024 113.147 80.608V82.912C113.147 85.0453 112.976 87.0507 112.635 88.928C112.294 90.8053 111.952 92.5547 111.611 94.176C110.843 93.7493 110.032 93.4507 109.179 93.28C108.411 93.1947 107.643 93.152 106.875 93.152C105.254 93.152 103.632 93.3227 102.011 93.664C100.39 94.0053 98.7257 94.176 97.019 94.176H96.123C95.6963 94.176 95.4403 94.1333 95.355 94.048C95.6963 92.768 95.867 90.848 95.867 88.288C95.867 85.8133 95.6963 83.296 95.355 80.736C95.0137 78.176 94.7577 75.488 94.587 72.672C94.4163 70.2827 94.331 67.7227 94.331 64.992C94.4163 62.2613 94.331 59.7867 94.075 57.568C93.9043 55.3493 93.4777 53.5147 92.795 52.064C92.1977 50.528 91.131 49.76 89.595 49.76C87.547 49.76 85.9257 50.2293 84.731 51.168C83.5363 52.0213 82.6403 53.2587 82.043 54.88C81.4457 56.416 81.0617 58.208 80.891 60.256C80.7203 62.304 80.635 64.48 80.635 66.784C80.635 67.7227 80.635 68.6187 80.635 69.472C80.7203 70.3253 80.763 71.1787 80.763 72.032C80.763 75.2747 80.5497 78.5173 80.123 81.76C79.7817 85.0027 79.611 88.032 79.611 90.848C79.611 91.4453 79.611 92 79.611 92.512C79.6963 93.1093 79.7817 93.664 79.867 94.176ZM111.611 84.704C111.952 82.0587 112.208 79.4133 112.379 76.768C112.464 76.3413 112.507 75.9573 112.507 75.616C112.507 75.2747 112.507 74.8907 112.507 74.464V72.16C112.507 66.016 112.294 60.4267 111.867 55.392C111.44 50.272 110.63 45.8773 109.435 42.208C108.326 38.5387 106.79 35.68 104.827 33.632C102.95 31.584 100.518 30.56 97.531 30.56C94.971 30.56 92.7523 30.7307 90.875 31.072C89.083 31.4133 87.547 31.84 86.267 32.352C84.987 32.864 83.9203 33.4613 83.067 34.144C82.2137 34.7413 81.531 35.296 81.019 35.808C81.019 35.9787 81.0617 36.1067 81.147 36.192C81.2323 36.2773 81.275 36.4053 81.275 36.576C81.1897 36.6613 81.147 36.7467 81.147 36.832C80.9763 36.832 80.8483 36.832 80.763 36.832C80.6777 36.7467 80.5923 36.704 80.507 36.704C80.4217 36.704 80.379 36.6613 80.379 36.576C80.123 36.576 79.867 36.6613 79.611 36.832C79.4403 36.9173 79.2697 36.96 79.099 36.96C79.0137 36.96 78.9283 36.9173 78.843 36.832C78.9283 36.2347 79.0563 35.424 79.227 34.4C79.483 33.2907 79.611 32.2667 79.611 31.328C79.611 31.1573 79.5683 30.9867 79.483 30.816C79.483 30.56 79.483 30.3467 79.483 30.176C77.179 30.176 74.9603 30.0907 72.827 29.92C70.6937 29.7493 68.5177 29.664 66.299 29.664C65.4457 29.664 64.9337 29.9627 64.763 30.56C64.6777 31.072 64.635 31.584 64.635 32.096C64.7203 32.1813 64.763 32.2667 64.763 32.352C64.763 32.5227 64.8057 32.6933 64.891 32.864C65.0617 32.6933 65.1043 32.48 65.019 32.224C65.019 31.968 65.2323 31.84 65.659 31.84C64.9763 33.5467 64.5497 35.2107 64.379 36.832C64.2083 38.4533 64.123 40.1173 64.123 41.824C64.123 44.4693 64.2083 47.1147 64.379 49.76C64.5497 52.32 64.635 54.9227 64.635 57.568C64.635 58.6773 64.5923 59.7867 64.507 60.896C64.507 62.0053 64.507 63.1573 64.507 64.352C64.507 65.8027 64.507 67.2107 64.507 68.576C64.5923 69.856 64.635 71.136 64.635 72.416C64.635 75.5733 64.4217 78.6027 63.995 81.504C63.6537 84.32 63.483 87.2213 63.483 90.208C66.2137 90.208 68.6457 90.592 70.779 91.36C72.9977 92.0427 75.3017 92.384 77.691 92.384C78.459 92.384 78.843 92.128 78.843 91.616C78.9283 91.0187 78.971 90.3787 78.971 89.696C78.971 88.7573 78.843 86.9227 78.587 84.192C78.331 81.4613 78.203 78.6453 78.203 75.744C78.203 72.7573 78.3737 69.8987 78.715 67.168C79.0563 64.352 79.5257 61.4507 80.123 58.464C80.2937 57.5253 80.4643 56.544 80.635 55.52C80.8057 54.496 81.019 53.6853 81.275 53.088C81.531 52.4907 81.9577 51.8933 82.555 51.296C83.1523 50.6133 83.7923 50.016 84.475 49.504C85.1577 48.9067 85.883 48.4373 86.651 48.096C87.419 47.7547 88.1017 47.584 88.699 47.584C90.4057 47.584 91.771 48.1813 92.795 49.376C93.9043 50.4853 94.7577 52.0213 95.355 53.984C96.0377 55.8613 96.507 57.9947 96.763 60.384C97.019 62.7733 97.1897 65.248 97.275 67.808C97.4457 70.368 97.531 72.8853 97.531 75.36C97.6163 77.8347 97.7443 80.0533 97.915 82.016C98.0003 82.784 98.043 83.552 98.043 84.32C98.1283 85.0027 98.171 85.728 98.171 86.496V91.232C98.171 91.5733 98.0003 91.744 97.659 91.744C97.403 91.744 97.275 91.9573 97.275 92.384C98.3843 92.2133 99.579 92.0853 100.859 92C102.139 91.9147 103.462 91.872 104.827 91.872C107.472 91.872 109.52 92.1707 110.971 92.768C111.142 90.0373 111.355 87.3493 111.611 84.704ZM171.796 0.351997C171.881 0.181328 172.095 0.095993 172.436 0.095993C172.351 3.08266 172.308 5.55733 172.308 7.52C172.308 9.48266 172.308 10.9333 172.308 11.872C172.308 20.9173 172.009 30.0053 171.412 39.136C170.9 48.1813 170.644 57.6107 170.644 67.424V73.44C170.644 75.488 170.729 77.6213 170.9 79.84C171.156 81.9733 171.284 83.7653 171.284 85.216C171.284 87.4347 171.156 89.568 170.9 91.616C170.217 91.616 169.663 91.4027 169.236 90.976C168.895 90.464 168.255 90.208 167.316 90.208C167.145 90.3787 167.06 90.6773 167.06 91.104C167.145 91.4453 166.932 91.616 166.42 91.616C166.249 91.616 166.079 91.616 165.908 91.616C165.737 91.5307 165.567 91.488 165.396 91.488H163.604C163.604 91.6587 163.263 91.7867 162.58 91.872C161.983 91.9573 161.257 92 160.404 92C159.636 92.0853 158.825 92.128 157.972 92.128C157.119 92.2133 156.521 92.2987 156.18 92.384C154.729 92.8107 153.961 93.024 153.876 93.024C153.705 93.024 153.577 92.8107 153.492 92.384C153.407 92.0427 153.321 91.616 153.236 91.104L153.108 86.88C153.108 86.1973 153.151 85.8133 153.236 85.728C152.895 86.0693 152.681 86.4107 152.596 86.752C152.511 87.008 152.425 87.3067 152.34 87.648C152.255 87.9893 152.084 88.416 151.828 88.928C151.657 89.3547 151.316 89.8667 150.804 90.464C149.609 91.4027 148.159 92.0427 146.452 92.384C144.745 92.7253 142.953 92.896 141.076 92.896C139.881 92.896 138.644 92.8107 137.364 92.64C136.169 92.5547 135.06 92.384 134.036 92.128C133.097 91.9573 132.287 91.744 131.604 91.488C131.007 91.1467 130.708 90.848 130.708 90.592C130.708 90.4213 130.751 90.2933 130.836 90.208C129.044 89.0987 127.337 87.4773 125.716 85.344C124.18 83.1253 122.772 80.6933 121.492 78.048C120.297 75.3173 119.359 72.4587 118.676 69.472C117.993 66.4 117.652 63.4133 117.652 60.512C117.652 57.44 117.823 54.2827 118.164 51.04C118.505 47.7973 119.103 44.768 119.956 41.952C120.895 39.0507 122.047 36.4907 123.412 34.272C124.863 31.968 126.697 30.2187 128.916 29.024C129.001 28.9387 129.684 28.7253 130.964 28.384C132.244 28.0427 133.695 27.7013 135.316 27.36C137.023 26.9333 138.687 26.592 140.308 26.336C141.929 25.9947 143.124 25.824 143.892 25.824C145.599 25.824 147.22 26.1227 148.756 26.72C150.377 27.3173 151.999 27.9147 153.62 28.512C153.535 28.4267 153.492 28.0853 153.492 27.488C153.492 27.0613 153.535 26.2933 153.62 25.184C153.791 24.0747 153.961 22.752 154.132 21.216C154.303 19.68 154.431 18.016 154.516 16.224C154.687 14.432 154.772 12.6827 154.772 10.976C154.772 7.392 154.303 3.97866 153.364 0.735992L156.564 0.095993C159.039 0.095993 161.257 0.351995 163.22 0.863998C165.183 1.29066 167.273 1.504 169.492 1.504C170.175 1.504 170.644 1.46133 170.9 1.376C171.156 1.20533 171.327 1.03466 171.412 0.863998C171.583 0.607997 171.711 0.43733 171.796 0.351997ZM163.348 89.568C165.055 89.3973 167.231 89.2267 169.876 89.056C169.791 87.8613 169.748 86.6667 169.748 85.472C169.748 84.2773 169.748 83.0827 169.748 81.888V74.72C169.748 62.432 169.919 50.4853 170.26 38.88C170.687 27.1893 170.9 15.2 170.9 2.91199C169.449 2.82666 168.084 2.61333 166.804 2.272C165.524 1.93066 164.159 1.75999 162.708 1.75999C162.452 1.75999 162.196 1.80266 161.94 1.88799C161.684 1.88799 161.428 1.88799 161.172 1.88799H161.044C160.532 1.88799 159.679 2.10133 158.484 2.52799C157.289 2.95466 156.607 3.76533 156.436 4.96C156.265 5.984 156.095 8.33066 155.924 12C155.753 15.584 155.583 20.4907 155.412 26.72C155.412 27.1467 155.412 27.5733 155.412 28C155.497 28.4267 155.54 28.8533 155.54 29.28C155.54 29.536 155.497 29.792 155.412 30.048C155.412 30.304 155.412 30.5173 155.412 30.688C154.985 30.2613 154.601 30.048 154.26 30.048C153.919 30.048 153.535 30.1333 153.108 30.304C152.767 30.3893 152.34 30.432 151.828 30.432C150.548 30.432 149.311 30.1333 148.116 29.536C147.007 28.9387 145.812 28.64 144.532 28.64C143.167 28.64 141.887 28.8107 140.692 29.152C139.497 29.408 138.473 29.6213 137.62 29.792C137.023 29.4507 136.383 29.28 135.7 29.28C133.567 29.28 131.561 30.0053 129.684 31.456C127.807 32.8213 126.143 34.7413 124.692 37.216C123.327 39.6053 122.217 42.464 121.364 45.792C120.596 49.12 120.212 52.704 120.212 56.544C120.212 59.616 120.596 62.304 121.364 64.608C122.132 66.8267 122.857 69.3013 123.54 72.032C124.223 74.6773 124.948 77.024 125.716 79.072C126.484 81.0347 127.465 82.6987 128.66 84.064C129.855 85.4293 131.348 86.4533 133.14 87.136C135.017 87.8187 137.364 88.16 140.18 88.16C141.972 88.16 143.337 87.9893 144.276 87.648C145.3 87.3067 146.153 86.9227 146.836 86.496C147.604 85.984 148.329 85.472 149.012 84.96C149.695 84.448 150.633 84.0213 151.828 83.68C152.084 83.424 152.212 83.1253 152.212 82.784C152.297 82.3573 152.639 82.144 153.236 82.144C153.919 82.4 154.26 82.8267 154.26 83.424C154.26 83.8507 154.132 84.2347 153.876 84.576C154.303 85.088 154.559 85.728 154.644 86.496C154.729 87.264 154.772 88.1173 154.772 89.056C156.223 89.4827 157.673 89.696 159.124 89.696C160.319 89.696 161.727 89.6533 163.348 89.568ZM136.852 45.28C139.497 42.464 142.911 40.8 147.092 40.288H148.116C149.908 40.288 151.359 40.5867 152.468 41.184C153.577 41.7813 154.431 42.6773 155.028 43.872C155.625 44.9813 156.009 46.3893 156.18 48.096C156.351 49.8027 156.436 51.7227 156.436 53.856C156.436 54.5387 156.393 55.648 156.308 57.184C156.308 58.6347 156.265 60.128 156.18 61.664C156.095 63.2 155.967 64.5653 155.796 65.76C155.711 66.9547 155.583 67.552 155.412 67.552C155.327 67.552 155.241 67.5093 155.156 67.424C155.071 67.2533 154.985 67.168 154.9 67.168C154.729 67.168 154.644 67.2107 154.644 67.296C154.473 68.7467 154.132 70.1973 153.62 71.648C153.193 73.0987 152.596 74.4213 151.828 75.616C151.06 76.7253 150.121 77.6213 149.012 78.304C147.988 78.9867 146.836 79.328 145.556 79.328C144.191 79.328 142.996 79.072 141.972 78.56C141.033 78.048 140.18 77.3653 139.412 76.512C138.644 75.5733 137.961 74.5493 137.364 73.44C136.767 72.3307 136.169 71.136 135.572 69.856C135.145 69.088 134.932 68.32 134.932 67.552C134.932 66.6987 134.847 65.6747 134.676 64.48C134.249 62.7733 133.865 61.152 133.524 59.616C133.183 58.08 133.012 56.544 133.012 55.008C133.012 51.3387 134.292 48.096 136.852 45.28ZM153.876 65.248C154.132 63.2 154.26 61.152 154.26 59.104C154.26 57.056 154.217 55.008 154.132 52.96C154.132 50.8267 153.961 48.9493 153.62 47.328C153.279 45.6213 152.681 44.256 151.828 43.232C150.975 42.1227 149.737 41.568 148.116 41.568C146.665 41.568 145.129 41.9093 143.508 42.592C141.887 43.2747 140.393 44.2987 139.028 45.664C137.663 46.944 136.553 48.5653 135.7 50.528C134.847 52.4907 134.42 54.7947 134.42 57.44C134.42 60 134.719 62.432 135.316 64.736C135.999 67.04 136.895 69.0453 138.004 70.752C139.113 72.4587 140.393 73.824 141.844 74.848C143.38 75.7867 145.044 76.256 146.836 76.256C148.372 76.256 149.609 75.744 150.548 74.72C151.487 73.696 152.212 72.3733 152.724 70.752C153.321 69.1307 153.705 67.296 153.876 65.248ZM215.43 60.64C213.297 60.384 211.121 60.2133 208.902 60.128L208.262 60.384C207.835 60.384 207.366 60.2987 206.854 60.128C206.342 59.9573 205.873 59.872 205.446 59.872C204.849 59.872 204.209 59.9147 203.526 60C202.843 60.0853 202.161 60.128 201.478 60.128C200.71 60.128 199.899 60.0427 199.046 59.872C198.278 59.7013 197.467 59.4027 196.614 58.976C197.126 60.6827 197.467 62.56 197.638 64.608C197.809 66.5707 198.107 68.448 198.534 70.24C198.961 72.032 199.643 73.5253 200.582 74.72C201.606 75.9147 203.227 76.512 205.446 76.512C208.347 76.512 210.395 75.488 211.59 73.44C212.785 71.3067 213.467 68.8747 213.638 66.144C214.747 66.3147 215.985 66.4427 217.35 66.528C218.715 66.6133 219.995 66.656 221.19 66.656C222.47 66.656 223.579 66.656 224.518 66.656C225.542 66.656 226.267 66.656 226.694 66.656C227.462 66.656 228.017 66.4853 228.358 66.144C228.358 67.424 228.358 68.832 228.358 70.368C228.443 71.8187 228.486 73.2693 228.486 74.72C228.486 76.9387 228.315 79.1147 227.974 81.248C227.718 83.296 227.078 84.9173 226.054 86.112C225.115 87.136 223.921 88.1173 222.47 89.056C221.019 89.9093 219.355 90.72 217.478 91.488C215.601 92.1707 213.595 92.6827 211.462 93.024C209.414 93.4507 207.366 93.664 205.318 93.664C200.881 93.664 196.998 92.896 193.67 91.36C190.427 89.824 187.697 87.7333 185.478 85.088C183.345 82.4427 181.723 79.3707 180.614 75.872C179.59 72.288 179.078 68.4907 179.078 64.48V55.392C179.078 50.4427 179.59 45.8773 180.614 41.696C181.638 37.5147 183.473 34.144 186.118 31.584C186.715 30.9867 187.654 30.3893 188.934 29.792C190.214 29.1093 191.707 28.512 193.414 28C195.206 27.488 197.169 27.104 199.302 26.848C201.435 26.5067 203.654 26.336 205.958 26.336C208.177 26.336 210.353 26.592 212.486 27.104C214.705 27.5307 216.71 28.1707 218.502 29.024C220.379 29.792 221.958 30.7307 223.238 31.84C224.518 32.9493 225.371 34.144 225.798 35.424C226.225 36.3627 226.481 37.3867 226.566 38.496C226.737 39.6053 227.206 40.3733 227.974 40.8C228.315 42.7627 228.657 44.8533 228.998 47.072C229.425 49.2907 229.638 51.5093 229.638 53.728C229.638 55.9467 229.467 57.6107 229.126 58.72C228.187 59.6587 227.078 60.256 225.798 60.512C224.518 60.768 223.067 60.896 221.446 60.896C219.569 60.896 217.563 60.8107 215.43 60.64ZM195.846 57.184C196.273 57.184 196.699 56.8 197.126 56.032C197.553 56.4587 198.022 56.672 198.534 56.672C199.046 56.672 199.558 56.6293 200.07 56.544C200.667 56.3733 201.307 56.288 201.99 56.288C203.185 56.288 204.337 56.4587 205.446 56.8C206.555 57.056 207.707 57.2693 208.902 57.44C210.097 57.6107 212.017 57.7387 214.662 57.824C217.393 57.9093 220.849 58.08 225.03 58.336C226.054 58.336 226.694 58.2933 226.95 58.208C227.377 57.0133 227.633 55.8187 227.718 54.624C227.889 53.344 227.974 52.1067 227.974 50.912C227.974 40.7573 224.774 34.0587 218.374 30.816C217.094 30.1333 215.217 29.664 212.742 29.408C210.267 29.0667 207.537 28.896 204.55 28.896C202.161 28.896 199.515 29.152 196.614 29.664C193.798 30.0907 191.11 31.2 188.55 32.992C186.075 34.6987 183.985 37.2587 182.278 40.672C180.571 44 179.718 48.5653 179.718 54.368C179.718 59.0613 180.145 63.4987 180.998 67.68C181.937 71.8613 183.217 75.5733 184.838 78.816C186.459 82.0587 188.337 84.704 190.47 86.752C192.603 88.7147 194.907 89.824 197.382 90.08C199.089 90.2507 200.667 90.3787 202.118 90.464C203.654 90.464 205.147 90.464 206.598 90.464C209.073 90.464 211.078 90.4213 212.614 90.336C214.235 90.2507 215.601 90.0373 216.71 89.696C217.819 89.2693 218.801 88.7147 219.654 88.032C220.507 87.264 221.446 86.24 222.47 84.96C225.457 80.4373 226.95 74.6773 226.95 67.68C226.097 67.5947 225.329 67.552 224.646 67.552C223.963 67.4667 223.281 67.424 222.598 67.424H217.99C217.649 67.424 217.307 67.424 216.966 67.424C216.71 67.424 216.369 67.3813 215.942 67.296C215.43 68.4907 214.875 69.856 214.278 71.392C213.766 72.8427 213.126 74.208 212.358 75.488C211.59 76.768 210.651 77.8347 209.542 78.688C208.433 79.5413 207.067 79.968 205.446 79.968C203.569 79.968 201.905 79.4987 200.454 78.56C199.003 77.536 197.766 76.256 196.742 74.72C195.803 73.184 195.078 71.4347 194.566 69.472C194.054 67.5093 193.798 65.5467 193.798 63.584C193.798 61.7067 194.139 59.5307 194.822 57.056C194.993 57.056 195.163 57.0987 195.334 57.184C195.505 57.184 195.675 57.184 195.846 57.184ZM214.406 51.168C214.406 50.9973 214.321 50.8267 214.15 50.656C213.553 50.9973 212.23 51.168 210.182 51.168C208.134 51.168 205.915 50.912 203.526 50.4C201.222 49.8027 199.345 49.504 197.894 49.504C196.785 49.504 196.145 49.9733 195.974 50.912C195.718 50.5707 195.377 50.272 194.95 50.016C194.609 49.6747 194.438 49.1627 194.438 48.48C194.438 47.8827 194.481 47.2853 194.566 46.688C194.737 46.0907 194.822 45.4933 194.822 44.896C194.822 44.128 194.779 43.7013 194.694 43.616C195.206 43.104 195.675 42.5067 196.102 41.824L197.51 39.776C198.022 39.0933 198.577 38.5387 199.174 38.112C199.771 37.6 200.539 37.344 201.478 37.344C202.331 37.344 203.014 37.5573 203.526 37.984C204.038 38.3253 204.721 38.496 205.574 38.496C205.915 38.496 206.214 38.496 206.47 38.496C206.811 38.4107 207.153 38.368 207.494 38.368C208.262 38.368 208.945 38.624 209.542 39.136C210.139 39.5627 210.779 39.776 211.462 39.776C211.803 39.776 212.017 39.7333 212.102 39.648C213.041 40.7573 213.979 41.9947 214.918 43.36C215.942 44.64 216.454 46.1333 216.454 47.84C216.454 48.2667 216.241 48.9493 215.814 49.888C215.387 50.8267 215.089 51.296 214.918 51.296C214.662 51.296 214.491 51.2533 214.406 51.168ZM197.382 46.176C197.638 46.688 197.766 47.2853 197.766 47.968C197.937 47.8827 198.875 47.84 200.582 47.84C202.374 47.84 203.953 47.84 205.318 47.84C206.769 47.84 207.835 47.8827 208.518 47.968C208.603 47.8827 208.646 47.7973 208.646 47.712C208.561 47.712 208.518 47.6693 208.518 47.584V47.328C209.627 47.584 210.225 47.7547 210.31 47.84C210.31 47.4987 210.609 47.328 211.206 47.328C211.547 47.328 211.931 47.3707 212.358 47.456C212.87 47.456 213.339 47.456 213.766 47.456C213.766 45.2373 213.339 43.4453 212.486 42.08C211.633 40.7147 209.883 40.032 207.238 40.032C206.043 40.032 204.849 40.16 203.654 40.416C202.459 40.5867 201.35 40.8853 200.326 41.312C199.387 41.6533 198.577 42.1227 197.894 42.72C197.297 43.232 196.998 43.8293 196.998 44.512C196.998 45.024 197.126 45.5787 197.382 46.176ZM278.193 28C278.364 28 278.534 27.9573 278.705 27.872C278.705 33.0773 278.662 37.344 278.577 40.672C278.577 43.9147 278.534 46.4747 278.449 48.352C278.364 50.144 278.236 51.3813 278.065 52.064C277.98 52.7467 277.852 53.088 277.681 53.088L276.017 52.96C275.846 52.7893 275.718 52.576 275.633 52.32C275.548 51.9787 274.993 51.5947 273.969 51.168C272.945 50.7413 271.409 50.272 269.361 49.76C267.398 49.248 265.521 48.992 263.729 48.992C261.766 48.992 260.188 49.5467 258.993 50.656C257.884 51.7653 256.988 53.1733 256.305 54.88C255.708 56.5867 255.324 58.5067 255.153 60.64C254.982 62.688 254.897 64.6507 254.897 66.528C254.897 68.7467 254.94 71.0507 255.025 73.44C255.196 75.8293 255.366 78.176 255.537 80.48C255.708 82.6987 255.878 84.8747 256.049 87.008C256.22 89.056 256.348 90.8907 256.433 92.512C254.385 92.8533 252.337 93.1093 250.289 93.28C248.326 93.536 246.534 93.7067 244.913 93.792C243.292 93.8773 241.926 93.92 240.817 93.92C239.708 94.0053 239.025 94.048 238.769 94.048C237.574 94.048 236.636 93.7067 235.953 93.024V89.44C235.612 82.9547 235.356 77.5787 235.185 73.312C235.014 68.96 234.929 65.6747 234.929 63.456C234.929 58.592 235.1 53.8987 235.441 49.376C235.868 44.8533 236.081 40.672 236.081 36.832C236.081 34.3573 235.953 32.096 235.697 30.048C236.55 30.048 237.02 29.8347 237.105 29.408C237.19 28.9813 237.361 28.3413 237.617 27.488C238.47 27.6587 238.982 27.744 239.153 27.744C242.054 27.744 244.486 27.5733 246.449 27.232C248.412 26.8907 250.417 26.72 252.465 26.72H253.873C253.958 26.6347 254.001 26.592 254.001 26.592C254.001 26.5067 254.044 26.4213 254.129 26.336L254.513 25.952C254.94 26.8053 255.11 27.872 255.025 29.152C255.025 30.432 255.238 31.6267 255.665 32.736C266.673 30.3467 273.841 28.5547 277.169 27.36C277.51 27.5307 277.681 27.7013 277.681 27.872C277.766 28.0427 277.894 28.128 278.065 28.128C278.065 28.0427 278.108 28 278.193 28ZM269.105 47.584C271.238 48.6933 273.414 49.5467 275.633 50.144C275.718 47.7547 275.846 45.3227 276.017 42.848C276.273 40.288 276.401 37.8133 276.401 35.424C276.401 33.5467 276.273 31.712 276.017 29.92C273.542 29.92 271.324 30.432 269.361 31.456C267.398 32.48 265.308 33.248 263.089 33.76C261.894 34.016 260.614 34.144 259.249 34.144C257.969 34.144 256.689 34.4 255.409 34.912V35.168C255.409 35.2533 255.409 35.3387 255.409 35.424C255.494 35.5093 255.537 35.5947 255.537 35.68C255.537 36.1067 255.324 36.4053 254.897 36.576C254.129 36.064 253.574 35.4667 253.233 34.784C252.892 34.1013 252.636 33.4613 252.465 32.864C252.38 32.1813 252.294 31.584 252.209 31.072C252.209 30.56 252.166 30.176 252.081 29.92C249.862 29.92 247.772 30.0907 245.809 30.432C243.846 30.7733 241.713 30.9867 239.409 31.072C239.068 32.608 238.854 34.144 238.769 35.68C238.684 37.216 238.641 38.7093 238.641 40.16C238.641 41.6107 238.641 43.0187 238.641 44.384C238.726 45.7493 238.769 47.7547 238.769 50.4L238.513 52.064V51.552C238.257 52.2347 238.129 53.0453 238.129 53.984C238.385 59.616 238.641 64.7787 238.897 69.472C238.982 71.4347 239.068 73.3973 239.153 75.36C239.324 77.3227 239.452 79.1573 239.537 80.864C239.622 82.4853 239.665 83.8933 239.665 85.088C239.75 86.2827 239.793 87.0507 239.793 87.392V88.544L240.433 89.696L239.537 92.128C239.366 92.128 239.238 92.0427 239.153 91.872C239.153 91.7013 239.11 91.616 239.025 91.616V91.872C239.025 92.2133 239.324 92.4267 239.921 92.512C240.604 92.5973 241.201 92.64 241.713 92.64C244.188 92.64 246.449 92.4267 248.497 92C250.63 91.488 252.764 91.0613 254.897 90.72C254.129 87.0507 253.617 83.04 253.361 78.688C253.105 74.2507 252.977 69.728 252.977 65.12C252.977 63.584 253.02 61.7067 253.105 59.488C253.276 57.2693 253.66 55.1787 254.257 53.216C254.854 51.168 255.75 49.4187 256.945 47.968C258.225 46.5173 260.017 45.792 262.321 45.792C264.796 45.792 267.057 46.3893 269.105 47.584ZM321.862 54.752C322.374 54.752 322.673 54.7947 322.758 54.88C323.782 55.0507 324.849 55.4773 325.958 56.16C327.067 56.7573 328.134 57.4827 329.158 58.336C330.182 59.1893 331.078 60.0853 331.846 61.024C332.699 61.8773 333.339 62.6453 333.766 63.328C334.363 64.352 334.875 65.7173 335.302 67.424C335.729 69.0453 335.942 70.5813 335.942 72.032C335.942 73.312 335.643 74.8053 335.046 76.512C334.449 78.2187 333.638 80.0107 332.614 81.888C331.675 83.68 330.566 85.4293 329.286 87.136C328.091 88.7573 326.811 90.1227 325.446 91.232C324.251 92.256 323.057 93.152 321.862 93.92C320.667 94.688 319.387 95.328 318.022 95.84C316.742 96.4373 315.291 96.864 313.67 97.12C312.134 97.376 310.342 97.504 308.294 97.504C304.539 97.504 301.041 96.9493 297.798 95.84C294.555 94.816 291.697 93.2373 289.222 91.104C286.833 88.9707 284.955 86.368 283.59 83.296C282.225 80.224 281.542 76.64 281.542 72.544C281.542 72.1173 281.542 71.6907 281.542 71.264C281.627 70.752 281.67 70.24 281.67 69.728C282.95 70.3253 284.699 70.624 286.918 70.624C288.881 70.624 290.843 70.4533 292.806 70.112C294.769 69.7707 296.731 69.6 298.694 69.6H299.974C301.169 69.6 301.937 70.0693 302.278 71.008C302.619 71.8613 303.003 72.8 303.43 73.824C303.857 74.848 304.539 75.8293 305.478 76.768C306.417 77.6213 308.081 78.048 310.47 78.048C312.091 78.048 313.585 77.3653 314.95 76C316.401 74.5493 317.126 72.8 317.126 70.752C317.126 68.704 316.23 67.1253 314.438 66.016C312.731 64.9067 310.555 64.0107 307.91 63.328C305.265 62.6453 302.406 61.9627 299.334 61.28C296.262 60.5973 293.403 59.616 290.758 58.336C288.113 57.056 285.894 55.3067 284.102 53.088C282.395 50.784 281.542 47.712 281.542 43.872C281.542 39.1787 282.779 35.4667 285.254 32.736C287.814 30.0053 291.782 27.8293 297.158 26.208C298.694 25.7813 300.102 25.312 301.382 24.8C302.662 24.288 304.155 24.032 305.862 24.032C308.251 24.032 310.811 24.2027 313.542 24.544C316.358 24.8853 319.003 25.3973 321.478 26.08C324.038 26.7627 326.342 27.6587 328.39 28.768C330.438 29.8773 331.974 31.2 332.998 32.736C333.595 33.6747 333.979 34.6987 334.15 35.808C334.406 36.9173 334.619 38.112 334.79 39.392L335.302 43.104C335.473 44.384 335.814 45.5787 336.326 46.688C335.131 47.8827 333.937 48.6933 332.742 49.12C331.547 49.4613 329.883 49.632 327.75 49.632C325.531 49.632 323.355 49.4613 321.222 49.12C319.174 48.6933 317.553 48.1387 316.358 47.456C315.761 46.6027 315.377 45.664 315.206 44.64C315.121 43.616 314.95 42.6773 314.694 41.824C314.438 40.9707 313.969 40.288 313.286 39.776C312.603 39.1787 311.366 38.88 309.574 38.88C307.867 38.88 306.459 39.3067 305.35 40.16C304.241 41.0133 303.686 42.208 303.686 43.744C303.686 44.9387 303.942 46.0053 304.454 46.944C305.051 47.8827 305.478 48.9067 305.734 50.016C306.758 50.6987 307.867 51.168 309.062 51.424C310.257 51.68 311.451 52.0213 312.646 52.448C313.841 52.8747 315.078 53.3867 316.358 53.984C317.638 54.5813 318.875 54.88 320.07 54.88C320.326 54.88 320.582 54.88 320.838 54.88C321.179 54.7947 321.521 54.752 321.862 54.752ZM309.702 92.384C317.723 92.384 323.611 89.696 327.366 84.32C327.793 83.6373 328.305 82.7413 328.902 81.632C329.585 80.5227 330.225 79.2853 330.822 77.92C331.505 76.5547 332.059 75.104 332.486 73.568C332.998 72.032 333.254 70.496 333.254 68.96C333.254 67.936 332.998 66.8693 332.486 65.76C331.974 64.5653 331.334 63.456 330.566 62.432C329.883 61.3227 329.073 60.3413 328.134 59.488C327.281 58.6347 326.47 57.9947 325.702 57.568C324.337 56.8 322.843 56.2453 321.222 55.904C319.601 55.5627 317.937 55.264 316.23 55.008C314.609 54.752 312.987 54.496 311.366 54.24C309.745 53.8987 308.251 53.3867 306.886 52.704C305.521 52.0213 304.155 50.7413 302.79 48.864C301.51 46.9013 300.87 44.6827 300.87 42.208C300.87 39.9893 301.339 38.4533 302.278 37.6C303.302 36.6613 304.497 36.192 305.862 36.192C307.483 36.192 309.105 36.576 310.726 37.344C312.347 38.0267 313.627 38.7093 314.566 39.392C315.078 40.8427 315.846 41.952 316.87 42.72C317.894 43.488 319.046 44.0853 320.326 44.512C321.691 44.8533 323.099 45.0667 324.55 45.152C326.001 45.152 327.451 45.152 328.902 45.152C330.097 45.152 331.249 44.9813 332.358 44.64C333.467 44.2133 334.022 43.4027 334.022 42.208C334.022 40.928 333.851 39.648 333.51 38.368C333.169 37.0027 332.657 35.808 331.974 34.784C331.377 33.6747 330.651 32.7787 329.798 32.096C328.945 31.4133 328.006 31.072 326.982 31.072C326.043 31.072 325.147 30.9013 324.294 30.56C323.526 30.1333 322.758 29.7067 321.99 29.28C321.222 28.8533 320.454 28.4693 319.686 28.128C318.918 27.7013 318.107 27.488 317.254 27.488H315.334C313.883 27.488 312.603 27.2747 311.494 26.848C310.385 26.4213 309.275 26.208 308.166 26.208C307.398 26.208 306.971 26.2507 306.886 26.336C305.179 26.848 303.558 27.2747 302.022 27.616C300.571 27.9573 299.121 28.4267 297.67 29.024C296.219 29.536 294.769 30.2613 293.318 31.2C291.867 32.0533 290.331 33.2907 288.71 34.912C287.174 36.448 285.979 37.8133 285.126 39.008C284.358 40.1173 283.974 41.8667 283.974 44.256C283.974 47.84 284.827 50.4427 286.534 52.064C288.326 53.6 290.63 54.8373 293.446 55.776L296.006 56.8C298.054 57.6533 300.443 58.3787 303.174 58.976C305.905 59.5733 308.465 60.2987 310.854 61.152C313.329 62.0053 315.377 63.072 316.998 64.352C318.705 65.5467 319.558 67.2107 319.558 69.344C319.558 71.0507 319.259 72.5867 318.662 73.952C318.15 75.232 317.467 76.3413 316.614 77.28C315.846 78.1333 314.95 78.816 313.926 79.328C312.902 79.7547 311.921 79.968 310.982 79.968C309.275 79.968 307.654 79.6267 306.118 78.944C304.667 78.176 303.558 77.28 302.79 76.256C302.278 75.6587 301.851 75.0613 301.51 74.464C301.254 73.7813 300.785 73.2267 300.102 72.8C299.334 72.3733 298.523 72.1173 297.67 72.032C296.817 71.8613 295.963 71.776 295.11 71.776C293.574 71.776 291.953 71.904 290.246 72.16C288.539 72.416 286.79 72.544 284.998 72.544H283.846C283.334 72.544 282.993 72.5013 282.822 72.416C282.993 74.1227 283.163 75.7013 283.334 77.152C283.59 78.5173 283.931 79.7973 284.358 80.992C285.211 83.296 286.534 85.216 288.326 86.752C290.203 88.2027 292.294 89.3547 294.598 90.208C296.987 90.976 299.462 91.5307 302.022 91.872C304.667 92.2133 307.227 92.384 309.702 92.384Z" fill="#0000ff"/>
</svg>
