<svg width="412" height="94" viewBox="0 0 412 94" fill="none" xmlns="http://www.w3.org/2000/svg">
<path d="M2.144 46.176C2.4 41.9093 3.46667 38.368 5.344 35.552C7.22133 32.736 9.61067 30.4747 12.512 28.768C15.4133 27.0613 18.656 25.8667 22.24 25.184C25.9093 24.416 29.5787 24.032 33.248 24.032C36.576 24.032 39.9467 24.288 43.36 24.8C46.7733 25.2267 49.888 26.1227 52.704 27.488C55.52 28.8533 57.824 30.7733 59.616 33.248C61.408 35.6373 62.304 38.8373 62.304 42.848V77.28C62.304 80.2667 62.4747 83.1253 62.816 85.856C63.1573 88.5867 63.7547 90.6347 64.608 92H46.176C45.8347 90.976 45.536 89.952 45.28 88.928C45.1093 87.8187 44.9813 86.7093 44.896 85.6C41.9947 88.5867 38.5813 90.6773 34.656 91.872C30.7307 93.0667 26.72 93.664 22.624 93.664C19.4667 93.664 16.5227 93.28 13.792 92.512C11.0613 91.744 8.672 90.5493 6.624 88.928C4.576 87.3067 2.95467 85.2587 1.76 82.784C0.650667 80.3093 0.0960002 77.3653 0.0960002 73.952C0.0960002 70.1973 0.736 67.1253 2.016 64.736C3.38133 62.2613 5.088 60.2987 7.136 58.848C9.26933 57.3973 11.6587 56.3307 14.304 55.648C17.0347 54.88 19.7653 54.2827 22.496 53.856C25.2267 53.4293 27.9147 53.088 30.56 52.832C33.2053 52.576 35.552 52.192 37.6 51.68C39.648 51.168 41.2693 50.4427 42.464 49.504C43.6587 48.48 44.2133 47.0293 44.128 45.152C44.128 43.1893 43.7867 41.6533 43.104 40.544C42.5067 39.3493 41.6533 38.4533 40.544 37.856C39.52 37.1733 38.2827 36.7467 36.832 36.576C35.4667 36.32 33.9733 36.192 32.352 36.192C28.768 36.192 25.952 36.96 23.904 38.496C21.856 40.032 20.6613 42.592 20.32 46.176H2.144ZM44.128 59.616C43.36 60.2987 42.3787 60.8533 41.184 61.28C40.0747 61.6213 38.8373 61.92 37.472 62.176C36.192 62.432 34.8267 62.6453 33.376 62.816C31.9253 62.9867 30.4747 63.2 29.024 63.456C27.6587 63.712 26.2933 64.0533 24.928 64.48C23.648 64.9067 22.496 65.504 21.472 66.272C20.5333 66.9547 19.7653 67.8507 19.168 68.96C18.5707 70.0693 18.272 71.4773 18.272 73.184C18.272 74.8053 18.5707 76.1707 19.168 77.28C19.7653 78.3893 20.576 79.2853 21.6 79.968C22.624 80.5653 23.8187 80.992 25.184 81.248C26.5493 81.504 27.9573 81.632 29.408 81.632C32.992 81.632 35.7653 81.0347 37.728 79.84C39.6907 78.6453 41.1413 77.2373 42.08 75.616C43.0187 73.9093 43.5733 72.2027 43.744 70.496C44 68.7893 44.128 67.424 44.128 66.4V59.616ZM76.412 25.824H93.692V35.04H94.076C96.38 31.2 99.3667 28.4267 103.036 26.72C106.705 24.928 110.46 24.032 114.3 24.032C119.164 24.032 123.132 24.7147 126.204 26.08C129.361 27.36 131.836 29.1947 133.628 31.584C135.42 33.888 136.657 36.7467 137.34 40.16C138.108 43.488 138.492 47.2 138.492 51.296V92H120.316V54.624C120.316 49.1627 119.463 45.1093 117.756 42.464C116.049 39.7333 113.02 38.368 108.668 38.368C103.719 38.368 100.135 39.8613 97.916 42.848C95.6973 45.7493 94.588 50.5707 94.588 57.312V92H76.412V25.824ZM199.263 58.72C199.263 55.9893 199.007 53.3867 198.495 50.912C197.983 48.352 197.087 46.1333 195.807 44.256C194.612 42.2933 193.034 40.7147 191.071 39.52C189.108 38.3253 186.634 37.728 183.647 37.728C180.66 37.728 178.143 38.3253 176.095 39.52C174.047 40.7147 172.383 42.2933 171.103 44.256C169.908 46.2187 169.012 48.48 168.415 51.04C167.903 53.5147 167.647 56.1173 167.647 58.848C167.647 61.408 167.946 63.968 168.543 66.528C169.14 69.088 170.079 71.392 171.359 73.44C172.724 75.4027 174.388 77.024 176.351 78.304C178.399 79.4987 180.831 80.096 183.647 80.096C186.634 80.096 189.108 79.4987 191.071 78.304C193.119 77.1093 194.74 75.5307 195.935 73.568C197.13 71.52 197.983 69.216 198.495 66.656C199.007 64.096 199.263 61.4507 199.263 58.72ZM199.519 83.552H199.263C197.13 87.136 194.314 89.7387 190.815 91.36C187.402 92.896 183.519 93.664 179.167 93.664C174.218 93.664 169.866 92.7253 166.111 90.848C162.356 88.8853 159.242 86.2827 156.767 83.04C154.378 79.712 152.543 75.9147 151.263 71.648C150.068 67.3813 149.471 62.944 149.471 58.336C149.471 53.8987 150.068 49.632 151.263 45.536C152.543 41.3547 154.378 37.6853 156.767 34.528C159.242 31.3707 162.314 28.8533 165.983 26.976C169.652 25.0133 173.919 24.032 178.783 24.032C182.708 24.032 186.42 24.8853 189.919 26.592C193.503 28.2133 196.319 30.6453 198.367 33.888H198.623V0.607994H216.799V92H199.519V83.552ZM275.081 51.808C274.228 47.2 272.692 43.7013 270.473 41.312C268.34 38.9227 265.054 37.728 260.617 37.728C257.716 37.728 255.284 38.24 253.321 39.264C251.444 40.2027 249.908 41.3973 248.713 42.848C247.604 44.2987 246.793 45.8347 246.281 47.456C245.854 49.0773 245.598 50.528 245.513 51.808H275.081ZM245.513 63.328C245.769 69.216 247.262 73.4827 249.993 76.128C252.724 78.7733 256.649 80.096 261.769 80.096C265.438 80.096 268.596 79.2 271.241 77.408C273.886 75.5307 275.508 73.568 276.105 71.52H292.105C289.545 79.456 285.62 85.1307 280.329 88.544C275.038 91.9573 268.638 93.664 261.129 93.664C255.924 93.664 251.23 92.8533 247.049 91.232C242.868 89.5253 239.326 87.136 236.425 84.064C233.524 80.992 231.262 77.3227 229.641 73.056C228.105 68.7893 227.337 64.096 227.337 58.976C227.337 54.0267 228.148 49.4187 229.769 45.152C231.39 40.8853 233.694 37.216 236.681 34.144C239.668 30.9867 243.209 28.512 247.305 26.72C251.486 24.928 256.094 24.032 261.129 24.032C266.761 24.032 271.668 25.1413 275.849 27.36C280.03 29.4933 283.444 32.3947 286.089 36.064C288.82 39.7333 290.782 43.9147 291.977 48.608C293.172 53.3013 293.598 58.208 293.257 63.328H245.513ZM304.037 25.824H321.317V38.112H321.573C322.426 36.064 323.578 34.1867 325.029 32.48C326.48 30.688 328.144 29.1947 330.021 28C331.898 26.72 333.904 25.7387 336.037 25.056C338.17 24.3733 340.389 24.032 342.693 24.032C343.888 24.032 345.21 24.2453 346.661 24.672V41.568C345.808 41.3973 344.784 41.2693 343.589 41.184C342.394 41.0133 341.242 40.928 340.133 40.928C336.805 40.928 333.989 41.4827 331.685 42.592C329.381 43.7013 327.504 45.2373 326.053 47.2C324.688 49.0773 323.706 51.296 323.109 53.856C322.512 56.416 322.213 59.1893 322.213 62.176V92H304.037V25.824ZM367.867 70.496C367.867 72.4587 368.251 74.1653 369.019 75.616C369.872 76.9813 370.939 78.1333 372.219 79.072C373.499 79.9253 374.95 80.5653 376.571 80.992C378.278 81.4187 380.027 81.632 381.819 81.632C383.099 81.632 384.422 81.504 385.787 81.248C387.238 80.9067 388.518 80.4373 389.627 79.84C390.822 79.1573 391.803 78.304 392.571 77.28C393.339 76.1707 393.723 74.8053 393.723 73.184C393.723 70.4533 391.888 68.4053 388.219 67.04C384.635 65.6747 379.6 64.3093 373.115 62.944C370.47 62.3467 367.867 61.664 365.307 60.896C362.832 60.0427 360.614 58.976 358.651 57.696C356.688 56.3307 355.11 54.6667 353.915 52.704C352.72 50.656 352.123 48.1813 352.123 45.28C352.123 41.0133 352.934 37.5147 354.555 34.784C356.262 32.0533 358.48 29.92 361.211 28.384C363.942 26.7627 367.014 25.6533 370.427 25.056C373.84 24.3733 377.339 24.032 380.923 24.032C384.507 24.032 387.963 24.3733 391.291 25.056C394.704 25.7387 397.734 26.8907 400.379 28.512C403.024 30.1333 405.2 32.3093 406.907 35.04C408.699 37.6853 409.766 41.056 410.107 45.152H392.827C392.571 41.6533 391.248 39.3067 388.859 38.112C386.47 36.832 383.654 36.192 380.411 36.192C379.387 36.192 378.278 36.2773 377.083 36.448C375.888 36.5333 374.779 36.7893 373.755 37.216C372.816 37.6427 372.006 38.2827 371.323 39.136C370.64 39.904 370.299 40.9707 370.299 42.336C370.299 43.9573 370.896 45.28 372.091 46.304C373.286 47.328 374.822 48.1813 376.699 48.864C378.662 49.4613 380.88 50.016 383.355 50.528C385.83 51.04 388.347 51.5947 390.907 52.192C393.552 52.7893 396.112 53.5147 398.587 54.368C401.147 55.2213 403.408 56.3733 405.371 57.824C407.334 59.1893 408.912 60.9387 410.107 63.072C411.302 65.12 411.899 67.68 411.899 70.752C411.899 75.104 411.003 78.7733 409.211 81.76C407.504 84.6613 405.243 87.008 402.427 88.8C399.611 90.592 396.368 91.8293 392.699 92.512C389.115 93.28 385.446 93.664 381.691 93.664C377.851 93.664 374.096 93.28 370.427 92.512C366.758 91.744 363.472 90.464 360.571 88.672C357.755 86.88 355.408 84.5333 353.531 81.632C351.739 78.6453 350.758 74.9333 350.587 70.496H367.867Z" fill="#0000ff"/>
</svg>
