<svg width="213" height="57" viewBox="0 0 213 57" fill="none" xmlns="http://www.w3.org/2000/svg">
<path d="M21.76 52.2027L21.3333 52.672C21.0489 53.0133 20.608 53.4116 20.0107 53.8667C19.4418 54.3218 18.7733 54.7769 18.0053 55.232C17.2658 55.6871 16.3556 56.0711 15.2747 56.384C14.1938 56.7253 13.0844 56.896 11.9467 56.896C4.26667 56.896 0.426667 53.0987 0.426667 45.504C0.426667 44.0249 0.696889 42.6738 1.23733 41.4507C1.77778 40.1991 2.47467 39.1467 3.328 38.2933C4.18133 37.44 5.20533 36.6862 6.4 36.032C7.59467 35.3493 8.78933 34.8231 9.984 34.4533C11.2071 34.0551 12.4871 33.728 13.824 33.472C15.1609 33.216 16.3556 33.0453 17.408 32.96C18.4604 32.8747 19.4702 32.832 20.4373 32.832V32.064C20.4373 30.3289 19.968 29.1058 19.0293 28.3947C18.1191 27.6836 16.64 27.328 14.592 27.328C12.8284 27.328 10.9938 27.5413 9.088 27.968C7.18222 28.3662 5.68889 28.8498 4.608 29.4187L1.87733 23.616C3.81156 22.3644 6.32889 21.2693 9.42933 20.3307C12.5298 19.3636 15.6871 18.88 18.9013 18.88C21.7458 18.88 24.0924 19.1644 25.9413 19.7333C27.7902 20.2738 29.2836 21.2124 30.4213 22.5493C31.5876 23.8578 32.4124 25.536 32.896 27.584C33.3796 29.6036 33.6213 32.1778 33.6213 35.3067V52.672L34.816 56H23.1253L21.76 52.2027ZM18.3893 49.3867C18.7591 49.3867 19.1004 49.3156 19.4133 49.1733C19.7547 49.0027 20.0107 48.8462 20.1813 48.704C20.352 48.5333 20.4373 48.448 20.4373 48.448V38.208C18.7022 38.208 17.3227 38.6916 16.2987 39.6587C15.2747 40.5973 14.7627 42.0622 14.7627 44.0533C14.7627 47.6089 15.9716 49.3867 18.3893 49.3867ZM52.8593 56H39.078V28.3947L36.518 26.816V22.2507L45.6913 19.7333H52.9447V25.2373L53.4567 24.5973C53.798 24.1422 54.2958 23.6018 54.95 22.976C55.6327 22.3502 56.3864 21.7387 57.2113 21.1413C58.0362 20.5156 59.0176 19.9893 60.1553 19.5627C61.3216 19.1076 62.4593 18.88 63.5687 18.88C67.4656 18.88 70.2104 19.9467 71.8033 22.08C73.4247 24.2133 74.2353 27.7831 74.2353 32.7893C74.2353 32.96 74.2353 33.216 74.2353 33.5573C74.2069 33.8987 74.1927 34.1689 74.1927 34.368V56H60.1127V33.1307C60.198 30.4569 59.0602 29.12 56.6993 29.12C56.5287 29.12 56.358 29.1342 56.1873 29.1627C56.0451 29.1911 55.9029 29.2196 55.7607 29.248C55.6469 29.2764 55.5047 29.3333 55.334 29.4187C55.1918 29.4756 55.0638 29.5324 54.95 29.5893C54.8362 29.6178 54.7082 29.6889 54.566 29.8027C54.4238 29.888 54.31 29.9591 54.2247 30.016C54.1393 30.0729 54.0113 30.1724 53.8407 30.3147C53.6984 30.4284 53.5847 30.5138 53.4993 30.5707C53.4424 30.6276 53.3287 30.7271 53.158 30.8693C53.0158 30.9831 52.9162 31.0684 52.8593 31.1253V56ZM103.429 56L101.765 50.496C101.537 50.8942 101.267 51.2924 100.954 51.6907C100.67 52.0889 100.2 52.6009 99.546 53.2267C98.8918 53.824 98.1949 54.3502 97.4553 54.8053C96.7158 55.2604 95.7913 55.6587 94.682 56C93.5727 56.3413 92.4064 56.512 91.1833 56.512C86.49 56.512 83.0482 54.9049 80.858 51.6907C78.6678 48.4764 77.5727 44.0107 77.5727 38.2933C77.5727 34.7093 78.0847 31.5236 79.1087 28.736C80.1327 25.92 81.7398 23.6587 83.93 21.952C86.1202 20.2453 88.7656 19.392 91.866 19.392C93.7149 19.392 95.3647 19.5911 96.8153 19.9893C98.266 20.3876 99.5176 20.8711 100.57 21.44V8.512L95.8767 6.93333V2.24L110.981 0.106667H114.309V56H103.429ZM97.4127 48.1493C97.9247 48.1493 98.4509 48.064 98.9913 47.8933C99.5318 47.6942 100.058 47.424 100.57 47.0827V25.6213C99.6882 25.4222 98.8776 25.3227 98.138 25.3227C94.3549 25.3511 92.4491 28.2667 92.4207 34.0693V40.0427C92.4207 42.7164 92.89 44.736 93.8287 46.1013C94.7673 47.4667 95.962 48.1493 97.4127 48.1493ZM139.235 33.9413C139.235 30.3289 139.05 27.7689 138.681 26.2613C138.311 24.7538 137.628 24 136.633 24C135.779 24 135.082 24.1564 134.542 24.4693C134.002 24.7538 133.603 25.2231 133.347 25.8773C133.091 26.5031 132.921 27.1573 132.835 27.84C132.778 28.4942 132.75 29.3333 132.75 30.3573V33.9413H139.235ZM135.822 56.896C132.636 56.896 129.863 56.4124 127.502 55.4453C125.17 54.4782 123.321 53.1271 121.955 51.392C120.618 49.6569 119.637 47.7084 119.011 45.5467C118.386 43.3564 118.073 40.9244 118.073 38.2507C118.073 31.8791 119.694 27.0578 122.937 23.7867C126.179 20.5156 130.716 18.88 136.547 18.88C142.151 18.88 146.162 20.2027 148.579 22.848C150.997 25.4649 152.206 29.6889 152.206 35.52V40.256H132.707V41.0667C132.707 42.7449 132.878 44.1244 133.219 45.2053C133.589 46.2862 134.115 47.0827 134.798 47.5947C135.481 48.1067 136.178 48.448 136.889 48.6187C137.6 48.7893 138.467 48.8747 139.491 48.8747C140.487 48.8747 141.554 48.7467 142.691 48.4907C143.858 48.2347 145.024 47.8364 146.19 47.296C147.385 46.7556 148.38 46.1156 149.177 45.376L151.694 49.6853C150.642 51.392 149.091 52.8284 147.043 53.9947C145.024 55.1324 143.075 55.9004 141.198 56.2987C139.321 56.6969 137.529 56.896 135.822 56.896ZM170.609 56H156.828V28.3947L154.268 26.816V21.9947L163.441 19.7333H166.897L168.135 29.888C169.301 22.9191 173.041 19.4347 179.356 19.4347C180.067 19.4347 180.807 19.5627 181.575 19.8187L180.124 35.008C179.527 34.4676 178.218 34.1973 176.199 34.1973C173.297 34.1973 171.434 34.9653 170.609 36.5013V56ZM196.174 56.896C193.501 56.896 190.798 56.4551 188.068 55.5733C185.337 54.6631 183.588 53.7813 182.82 52.928L183.929 46.0587C184.896 46.9973 186.503 47.808 188.75 48.4907C191.026 49.1733 193.344 49.5147 195.705 49.5147C197.412 49.5147 198.578 49.3013 199.204 48.8747C199.858 48.448 200.185 47.8507 200.185 47.0827C200.185 46.3431 199.616 45.6889 198.478 45.12C197.341 44.5227 195.492 43.84 192.932 43.072C186.304 41.0809 182.99 36.9564 182.99 30.6987C182.99 28.1387 183.73 25.9484 185.209 24.128C186.688 22.2791 188.58 20.9422 190.884 20.1173C193.188 19.2924 195.762 18.88 198.606 18.88C203.47 18.88 207.054 19.776 209.358 21.568C209.87 22.0516 210.126 22.2933 210.126 22.2933L208.249 28.3947C206.372 26.5458 203.783 25.6213 200.484 25.6213C197.781 25.6213 196.43 26.4178 196.43 28.0107C196.43 28.4658 196.53 28.8498 196.729 29.1627C196.928 29.4471 197.255 29.7031 197.71 29.9307C198.194 30.1298 198.663 30.3004 199.118 30.4427C199.573 30.5564 200.213 30.7271 201.038 30.9547C201.863 31.1538 202.574 31.3387 203.172 31.5093C206.5 32.6187 208.917 34.1831 210.425 36.2027C211.933 38.2222 212.686 40.7396 212.686 43.7547C212.686 52.5156 207.182 56.896 196.174 56.896Z" fill="#F1A008"/>
</svg>
